<svg xmlns="http://www.w3.org/2000/svg" xmlns:xlink="http://www.w3.org/1999/xlink" width="500" zoomAndPan="magnify" viewBox="0 0 375 374.999991" height="500" preserveAspectRatio="xMidYMid meet" version="1.0"><defs><g/><clipPath id="e089812fdb"><path d="M 58.5 58.5 L 316.5 58.5 L 316.5 316.5 L 58.5 316.5 Z M 58.5 58.5 " clip-rule="nonzero"/></clipPath><clipPath id="016f730c0f"><path d="M 187.5 316.5 C 153.058594 316.5 120.628906 303.09375 96.292969 278.707031 C 71.90625 254.371094 58.5 221.941406 58.5 187.5 C 58.5 153.058594 71.90625 120.628906 96.292969 96.292969 C 120.628906 71.90625 153.058594 58.5 187.5 58.5 C 221.941406 58.5 254.371094 71.90625 278.707031 96.292969 C 303.09375 120.679688 316.5 153.058594 316.5 187.5 C 316.5 221.941406 303.09375 254.371094 278.707031 278.707031 C 254.371094 303.09375 221.941406 316.5 187.5 316.5 Z M 187.5 66.234375 C 155.121094 66.234375 124.648438 78.867188 101.757812 101.757812 C 78.867188 124.648438 66.234375 155.121094 66.234375 187.5 C 66.234375 219.878906 78.867188 250.351562 101.757812 273.242188 C 124.648438 296.132812 155.121094 308.765625 187.5 308.765625 C 219.878906 308.765625 250.351562 296.132812 273.242188 273.242188 C 296.132812 250.351562 308.765625 219.878906 308.765625 187.5 C 308.765625 155.121094 296.132812 124.648438 273.242188 101.757812 C 250.351562 78.867188 219.878906 66.234375 187.5 66.234375 Z M 187.5 66.234375 " clip-rule="nonzero"/></clipPath><clipPath id="cdd6e798fd"><path d="M 80.125 145.417969 L 294.625 145.417969 L 294.625 236.917969 L 80.125 236.917969 Z M 80.125 145.417969 " clip-rule="nonzero"/></clipPath><clipPath id="9a039b3305"><path d="M 96.902344 96.902344 L 278.402344 96.902344 L 278.402344 278.402344 L 96.902344 278.402344 Z M 96.902344 96.902344 " clip-rule="nonzero"/></clipPath><clipPath id="a1f74debb8"><path d="M 112.503906 172.316406 L 262.5 172.316406 L 262.5 211.707031 L 112.503906 211.707031 Z M 112.503906 172.316406 " clip-rule="nonzero"/></clipPath><clipPath id="1b4ce85627"><path d="M 112.5 150 L 262.5 150 L 262.5 196 L 112.5 196 Z M 112.5 150 " clip-rule="nonzero"/></clipPath><clipPath id="21811d4f12"><path d="M 176 128.53125 L 208 128.53125 L 208 156 L 176 156 Z M 176 128.53125 " clip-rule="nonzero"/></clipPath><clipPath id="98a99a05eb"><path d="M 187.273438 220.101562 L 240.570312 220.101562 L 240.570312 246.277344 L 187.273438 246.277344 Z M 187.273438 220.101562 " clip-rule="nonzero"/></clipPath><clipPath id="952ddabac6"><path d="M 137.859375 220.101562 L 191.15625 220.101562 L 191.15625 246.277344 L 137.859375 246.277344 Z M 137.859375 220.101562 " clip-rule="nonzero"/></clipPath></defs><g clip-path="url(#e089812fdb)"><g clip-path="url(#016f730c0f)"><path fill="#ce9e68" d="M 58.5 58.5 L 316.5 58.5 L 316.5 316.5 L 58.5 316.5 Z M 58.5 58.5 " fill-opacity="1" fill-rule="nonzero"/></g></g><g clip-path="url(#cdd6e798fd)"><path fill="#ce9e68" d="M 288.226562 216.128906 C 285.503906 225.394531 281.347656 234.191406 276.191406 242.289062 C 271.933594 248.878906 267.089844 255.074219 261.648438 260.707031 C 260.945312 261.476562 260.160156 262.167969 259.410156 262.894531 C 258.652344 263.605469 257.914062 264.34375 257.136719 265.039062 L 254.777344 267.089844 L 253.601562 268.117188 L 252.375 269.089844 L 249.933594 271.042969 C 249.105469 271.675781 248.25 272.273438 247.414062 272.890625 C 245.757812 274.160156 243.996094 275.277344 242.269531 276.449219 C 242.019531 276.617188 241.757812 276.792969 241.484375 276.976562 C 241.203125 277.144531 240.914062 277.320312 240.605469 277.503906 C 240 277.867188 239.34375 278.257812 238.644531 278.675781 C 237.265625 279.542969 235.636719 280.355469 233.875 281.292969 C 233.433594 281.523438 232.988281 281.769531 232.519531 281.996094 C 232.046875 282.214844 231.570312 282.4375 231.078125 282.664062 C 230.101562 283.117188 229.085938 283.585938 228.039062 284.070312 C 225.894531 284.90625 223.65625 285.914062 221.21875 286.695312 C 211.585938 290.1875 199.5625 292.347656 187.5 292.398438 C 175.433594 292.347656 163.414062 290.1875 153.78125 286.695312 C 151.339844 285.914062 149.101562 284.90625 146.957031 284.070312 C 145.910156 283.585938 144.898438 283.117188 143.917969 282.664062 C 143.429688 282.4375 142.949219 282.214844 142.476562 281.996094 C 142.007812 281.773438 141.566406 281.523438 141.121094 281.292969 C 139.363281 280.359375 137.730469 279.542969 136.351562 278.675781 C 135.652344 278.257812 135 277.867188 134.390625 277.503906 C 134.085938 277.320312 133.792969 277.144531 133.511719 276.976562 C 133.238281 276.792969 132.976562 276.617188 132.730469 276.449219 C 126.175781 272.15625 120.019531 267.277344 114.421875 261.796875 C 108.519531 255.898438 103.355469 249.292969 98.808594 242.289062 C 93.648438 234.191406 89.492188 225.394531 86.769531 216.128906 C 83.933594 206.890625 82.621094 197.195312 82.539062 187.5 C 82.621094 177.800781 83.933594 168.105469 86.769531 158.867188 C 89.492188 149.601562 93.648438 140.808594 98.804688 132.707031 C 103.0625 126.117188 107.90625 119.921875 113.347656 114.289062 C 114.050781 113.519531 114.835938 112.828125 115.585938 112.101562 C 116.34375 111.390625 117.082031 110.652344 117.859375 109.957031 L 120.21875 107.90625 L 121.398438 106.878906 L 122.621094 105.90625 L 125.0625 103.953125 C 125.890625 103.320312 126.746094 102.722656 127.582031 102.105469 C 129.238281 100.835938 131.003906 99.71875 132.726562 98.546875 C 132.976562 98.378906 133.238281 98.203125 133.511719 98.019531 C 133.792969 97.851562 134.085938 97.675781 134.390625 97.492188 C 134.996094 97.128906 135.652344 96.738281 136.351562 96.320312 C 137.730469 95.453125 139.359375 94.640625 141.121094 93.703125 C 141.566406 93.476562 142.007812 93.226562 142.476562 93 C 142.949219 92.78125 143.429688 92.558594 143.917969 92.332031 C 144.894531 91.878906 145.910156 91.410156 146.957031 90.925781 C 149.101562 90.089844 151.339844 89.082031 153.777344 88.300781 C 163.414062 84.808594 175.433594 82.648438 187.5 82.597656 C 199.5625 82.648438 211.585938 84.808594 221.214844 88.300781 C 223.65625 89.082031 225.894531 90.089844 228.039062 90.925781 C 229.085938 91.410156 230.097656 91.878906 231.078125 92.332031 C 231.566406 92.558594 232.046875 92.78125 232.519531 93 C 232.988281 93.222656 233.429688 93.476562 233.875 93.703125 C 235.632812 94.636719 237.265625 95.453125 238.644531 96.320312 C 239.34375 96.738281 239.996094 97.128906 240.605469 97.492188 C 240.910156 97.675781 241.203125 97.851562 241.484375 98.019531 C 241.757812 98.203125 242.019531 98.378906 242.265625 98.546875 C 248.820312 102.839844 254.976562 107.71875 260.574219 113.199219 C 266.476562 119.097656 271.640625 125.703125 276.1875 132.707031 C 281.347656 140.804688 285.503906 149.601562 288.226562 158.867188 C 291.0625 168.105469 292.375 177.800781 292.457031 187.5 C 292.375 197.195312 291.0625 206.890625 288.226562 216.128906 Z M 294.871094 187.425781 L 294.867188 187.417969 C 294.78125 177.519531 293.449219 167.613281 290.5625 158.164062 C 287.789062 148.691406 283.542969 139.699219 278.246094 131.4375 L 275.699219 127.609375 C 275.699219 127.609375 274.960938 126.582031 273.859375 125.039062 C 272.796875 123.460938 271.171875 121.519531 269.617188 119.523438 C 267.941406 117.628906 266.339844 115.671875 264.988281 114.335938 C 263.675781 112.964844 262.800781 112.054688 262.800781 112.054688 C 262.800781 112.054688 262.582031 111.828125 262.183594 111.445312 C 261.785156 111.0625 261.21875 110.511719 260.535156 109.855469 C 259.207031 108.5 257.273438 106.867188 255.382812 105.191406 C 254.410156 104.382812 253.410156 103.609375 252.484375 102.867188 C 252.023438 102.5 251.574219 102.140625 251.148438 101.804688 C 250.707031 101.484375 250.292969 101.1875 249.90625 100.910156 C 248.371094 99.796875 247.34375 99.058594 247.34375 99.058594 C 247.34375 99.058594 247.121094 98.878906 246.757812 98.644531 C 246.402344 98.40625 245.925781 98.085938 245.449219 97.765625 C 244.496094 97.128906 243.539062 96.488281 243.539062 96.488281 C 243.285156 96.316406 243.019531 96.136719 242.742188 95.949219 C 242.453125 95.773438 242.15625 95.59375 241.84375 95.40625 C 241.222656 95.03125 240.550781 94.628906 239.839844 94.203125 C 238.429688 93.3125 236.761719 92.476562 234.960938 91.515625 C 234.507812 91.28125 234.050781 91.023438 233.574219 90.796875 C 233.09375 90.570312 232.601562 90.339844 232.101562 90.109375 C 231.101562 89.644531 230.0625 89.164062 228.992188 88.667969 C 226.796875 87.804688 224.507812 86.777344 222.007812 85.972656 C 212.152344 82.390625 199.84375 80.171875 187.5 80.125 C 175.152344 80.171875 162.84375 82.390625 152.984375 85.972656 C 150.488281 86.777344 148.199219 87.804688 146.003906 88.667969 C 144.933594 89.164062 143.898438 89.644531 142.894531 90.109375 C 142.394531 90.34375 141.902344 90.570312 141.421875 90.796875 C 140.941406 91.023438 140.488281 91.28125 140.035156 91.515625 C 138.234375 92.476562 136.566406 93.3125 135.15625 94.203125 C 134.445312 94.628906 133.773438 95.03125 133.152344 95.40625 C 132.839844 95.59375 132.542969 95.777344 132.253906 95.949219 C 131.976562 96.136719 131.710938 96.316406 131.453125 96.488281 C 131.453125 96.488281 130.5 97.128906 129.546875 97.765625 C 129.070312 98.085938 128.59375 98.40625 128.238281 98.644531 C 127.875 98.878906 127.652344 99.058594 127.652344 99.058594 C 127.652344 99.058594 126.628906 99.796875 125.089844 100.910156 C 124.703125 101.1875 124.289062 101.484375 123.847656 101.804688 C 123.421875 102.140625 122.976562 102.5 122.511719 102.867188 C 121.585938 103.609375 120.585938 104.382812 119.617188 105.191406 C 117.722656 106.867188 115.792969 108.5 114.460938 109.855469 C 113.777344 110.511719 113.210938 111.0625 112.8125 111.445312 C 112.414062 111.828125 112.195312 112.054688 112.195312 112.054688 C 112.195312 112.054688 111.320312 112.964844 110.007812 114.335938 C 108.65625 115.671875 107.054688 117.628906 105.378906 119.523438 C 103.824219 121.519531 102.199219 123.460938 101.136719 125.039062 C 100.03125 126.582031 99.296875 127.609375 99.296875 127.609375 L 96.75 131.4375 C 91.453125 139.699219 87.207031 148.691406 84.433594 158.164062 C 81.546875 167.613281 80.214844 177.519531 80.128906 187.417969 L 80.125 187.425781 L 80.125 187.570312 L 80.128906 187.578125 C 80.214844 197.476562 81.546875 207.386719 84.433594 216.832031 C 87.207031 226.304688 91.453125 235.300781 96.75 243.558594 L 99.296875 247.386719 C 99.296875 247.386719 100.035156 248.414062 101.136719 249.960938 C 102.199219 251.535156 103.824219 253.476562 105.378906 255.472656 C 107.054688 257.367188 108.65625 259.324219 110.007812 260.660156 C 111.320312 262.027344 112.195312 262.941406 112.195312 262.941406 C 112.195312 262.941406 112.414062 263.167969 112.8125 263.550781 C 113.210938 263.933594 113.777344 264.484375 114.460938 265.140625 C 115.792969 266.496094 117.722656 268.128906 119.617188 269.804688 C 120.585938 270.613281 121.585938 271.386719 122.511719 272.128906 C 122.976562 272.496094 123.421875 272.855469 123.847656 273.191406 C 124.289062 273.511719 124.703125 273.808594 125.089844 274.085938 C 126.628906 275.199219 127.652344 275.9375 127.652344 275.9375 C 127.652344 275.9375 127.875 276.117188 128.238281 276.351562 C 128.59375 276.589844 129.070312 276.910156 129.546875 277.230469 C 130.5 277.867188 131.457031 278.507812 131.457031 278.507812 C 131.710938 278.679688 131.976562 278.859375 132.253906 279.046875 C 132.542969 279.222656 132.839844 279.402344 133.152344 279.589844 C 133.773438 279.964844 134.445312 280.367188 135.15625 280.792969 C 136.566406 281.683594 138.234375 282.519531 140.035156 283.480469 C 140.488281 283.714844 140.945312 283.972656 141.421875 284.199219 C 141.902344 284.425781 142.394531 284.65625 142.894531 284.886719 C 143.898438 285.351562 144.933594 285.832031 146.003906 286.328125 C 148.199219 287.191406 150.488281 288.21875 152.988281 289.023438 C 162.84375 292.605469 175.152344 294.820312 187.5 294.871094 C 199.84375 294.820312 212.152344 292.605469 222.011719 289.023438 C 224.507812 288.21875 226.796875 287.191406 228.992188 286.328125 C 230.0625 285.832031 231.101562 285.351562 232.101562 284.886719 C 232.601562 284.652344 233.09375 284.425781 233.574219 284.199219 C 234.054688 283.972656 234.507812 283.714844 234.960938 283.480469 C 236.761719 282.519531 238.429688 281.683594 239.839844 280.792969 C 240.550781 280.367188 241.222656 279.964844 241.84375 279.589844 C 242.15625 279.402344 242.453125 279.21875 242.742188 279.046875 C 243.019531 278.859375 243.285156 278.679688 243.542969 278.507812 C 243.542969 278.507812 244.496094 277.867188 245.449219 277.230469 C 245.925781 276.910156 246.402344 276.589844 246.757812 276.351562 C 247.121094 276.117188 247.34375 275.9375 247.34375 275.9375 C 247.34375 275.9375 248.371094 275.199219 249.90625 274.085938 C 250.292969 273.808594 250.707031 273.511719 251.148438 273.191406 C 251.574219 272.855469 252.023438 272.496094 252.484375 272.128906 C 253.410156 271.386719 254.410156 270.613281 255.382812 269.804688 C 257.273438 268.128906 259.207031 266.496094 260.535156 265.140625 C 261.21875 264.484375 261.785156 263.933594 262.183594 263.550781 C 262.582031 263.167969 262.800781 262.941406 262.800781 262.941406 C 262.800781 262.941406 263.675781 262.027344 264.988281 260.660156 C 266.339844 259.324219 267.941406 257.367188 269.617188 255.472656 C 271.171875 253.476562 272.796875 251.535156 273.859375 249.960938 C 274.964844 248.414062 275.699219 247.386719 275.699219 247.386719 L 278.246094 243.558594 C 283.542969 235.300781 287.789062 226.304688 290.5625 216.832031 C 293.449219 207.382812 294.78125 197.476562 294.867188 187.578125 L 294.871094 187.570312 L 294.871094 187.425781 " fill-opacity="1" fill-rule="nonzero"/></g><g clip-path="url(#9a039b3305)"><path fill="#ce9e68" d="M 187.496094 96.902344 C 237.527344 96.902344 278.085938 137.464844 278.085938 187.496094 C 278.085938 237.527344 237.527344 278.085938 187.496094 278.085938 C 137.464844 278.085938 96.902344 237.527344 96.902344 187.496094 C 96.902344 137.464844 137.464844 96.902344 187.496094 96.902344 Z M 187.496094 96.902344 " fill-opacity="1" fill-rule="evenodd"/></g><g clip-path="url(#a1f74debb8)"><path fill="#9b2c32" d="M 116.054688 179.839844 C 119.355469 191.566406 136.699219 201.921875 161.285156 206.363281 C 169.644531 207.867188 178.464844 208.632812 187.5 208.632812 C 196.53125 208.632812 205.351562 207.867188 213.71875 206.355469 C 238.300781 201.917969 255.648438 191.566406 258.945312 179.84375 C 251.167969 187.34375 231.917969 192 214.148438 193.988281 C 205.644531 194.941406 196.679688 195.425781 187.5 195.425781 C 178.308594 195.425781 169.34375 194.941406 160.855469 193.992188 C 143.085938 192 123.832031 187.34375 116.054688 179.839844 Z M 187.5 211.609375 C 178.289062 211.609375 169.289062 210.828125 160.757812 209.289062 C 146.859375 206.78125 134.96875 202.40625 126.359375 196.648438 C 117.292969 190.582031 112.503906 183.363281 112.503906 175.773438 C 112.503906 175.070312 112.546875 174.359375 112.632812 173.65625 C 112.71875 172.925781 113.324219 172.371094 114.058594 172.34375 C 114.074219 172.34375 114.09375 172.34375 114.109375 172.34375 C 114.820312 172.34375 115.4375 172.847656 115.574219 173.550781 C 116.261719 177.117188 120.984375 180.789062 128.875 183.886719 C 137.097656 187.117188 148.269531 189.585938 161.1875 191.035156 C 169.566406 191.972656 178.417969 192.449219 187.5 192.449219 C 196.566406 192.449219 205.421875 191.972656 213.816406 191.03125 C 226.730469 189.585938 237.90625 187.113281 246.128906 183.886719 C 254.015625 180.789062 258.738281 177.117188 259.429688 173.550781 C 259.566406 172.828125 260.214844 172.320312 260.945312 172.34375 C 261.679688 172.371094 262.285156 172.925781 262.371094 173.652344 C 262.453125 174.355469 262.5 175.070312 262.5 175.773438 C 262.5 183.363281 257.707031 190.582031 248.640625 196.648438 C 240.035156 202.40625 228.140625 206.777344 214.25 209.285156 C 205.707031 210.828125 196.710938 211.609375 187.5 211.609375 " fill-opacity="1" fill-rule="nonzero"/></g><path fill="#8ec752" d="M 261.007812 172.621094 C 261.007812 173.027344 260.96875 173.433594 260.894531 173.832031 C 259.242188 182.371094 240.261719 189.566406 213.984375 192.511719 C 205.765625 193.429688 196.839844 193.9375 187.5 193.9375 C 178.167969 193.9375 169.234375 193.433594 161.019531 192.511719 C 134.742188 189.566406 115.757812 182.371094 114.109375 173.832031 C 114.03125 173.433594 113.992188 173.027344 113.992188 172.621094 C 113.992188 170.84375 114.742188 169.117188 116.160156 167.464844 C 122.652344 159.890625 143.113281 153.914062 169.160156 151.976562 C 175.023438 151.539062 181.167969 151.304688 187.5 151.304688 C 193.832031 151.304688 199.980469 151.539062 205.84375 151.976562 C 231.886719 153.914062 252.351562 159.890625 258.84375 167.464844 C 260.257812 169.117188 261.007812 170.84375 261.007812 172.621094 " fill-opacity="1" fill-rule="nonzero"/><path fill="#c20555" d="M 256.636719 178.117188 C 256.636719 178.5 256.597656 178.878906 256.527344 179.253906 C 254.976562 187.285156 237.121094 194.054688 212.410156 196.824219 C 204.679688 197.6875 196.28125 198.164062 187.5 198.164062 C 178.722656 198.164062 170.324219 197.691406 162.597656 196.824219 C 137.878906 194.054688 120.027344 187.285156 118.476562 179.253906 C 118.402344 178.878906 118.367188 178.5 118.367188 178.117188 C 118.367188 176.445312 119.070312 174.820312 120.402344 173.265625 C 126.507812 166.140625 145.753906 160.519531 170.25 158.699219 C 175.765625 158.289062 181.546875 158.066406 187.5 158.066406 C 193.457031 158.066406 199.238281 158.289062 204.753906 158.699219 C 229.25 160.519531 248.496094 166.140625 254.601562 173.265625 C 255.929688 174.820312 256.636719 176.445312 256.636719 178.117188 " fill-opacity="1" fill-rule="nonzero"/><path fill="#fc544b" d="M 236.636719 178.867188 C 236.636719 179.152344 236.609375 179.4375 236.558594 179.71875 C 235.457031 185.726562 222.769531 190.792969 205.203125 192.863281 C 199.710938 193.511719 193.742188 193.867188 187.5 193.867188 C 181.261719 193.867188 175.292969 193.511719 169.800781 192.863281 C 152.234375 190.792969 139.546875 185.726562 138.441406 179.71875 C 138.390625 179.4375 138.363281 179.152344 138.363281 178.867188 C 138.363281 177.617188 138.867188 176.398438 139.8125 175.238281 C 144.152344 169.90625 157.828125 165.703125 175.238281 164.339844 C 179.160156 164.03125 183.269531 163.867188 187.5 163.867188 C 191.734375 163.867188 195.84375 164.03125 199.761719 164.339844 C 217.171875 165.703125 230.851562 169.90625 235.1875 175.238281 C 236.136719 176.398438 236.636719 177.617188 236.636719 178.867188 " fill-opacity="1" fill-rule="nonzero"/><path fill="#e8cb93" d="M 261.007812 175.773438 C 261.007812 190.378906 241.496094 202.855469 213.984375 207.820312 C 205.765625 209.304688 196.839844 210.121094 187.5 210.121094 C 178.167969 210.121094 169.234375 209.308594 161.019531 207.828125 C 133.507812 202.855469 113.992188 190.378906 113.992188 175.773438 C 113.992188 175.121094 114.03125 174.472656 114.109375 173.832031 C 115.757812 182.371094 134.742188 189.566406 161.019531 192.511719 C 169.234375 193.433594 178.167969 193.9375 187.5 193.9375 C 196.839844 193.9375 205.765625 193.429688 213.984375 192.511719 C 240.261719 189.566406 259.242188 182.371094 260.894531 173.832031 C 260.96875 174.472656 261.007812 175.121094 261.007812 175.773438 " fill-opacity="1" fill-rule="nonzero"/><path fill="#107e3f" d="M 120.960938 184.832031 C 120.785156 185.085938 120.613281 185.339844 120.441406 185.59375 C 120.863281 186 120.980469 186.585938 120.671875 187.042969 C 120.292969 187.605469 119.402344 187.753906 118.691406 187.363281 C 117.980469 186.976562 117.734375 186.203125 118.128906 185.652344 C 118.453125 185.203125 119.09375 185.03125 119.691406 185.183594 C 119.867188 184.929688 120.042969 184.679688 120.21875 184.429688 C 118.933594 183.71875 117.664062 182.992188 116.40625 182.242188 C 116.472656 183.226562 116.550781 184.214844 116.640625 185.203125 C 117.324219 186.453125 118.171875 187.699219 119.1875 188.933594 C 121.113281 188.285156 123.007812 187.597656 124.867188 186.871094 C 123.550781 186.214844 122.25 185.535156 120.960938 184.832031 " fill-opacity="1" fill-rule="nonzero"/><path fill="#9c4a18" d="M 123.15625 191.722656 C 122.691406 191.320312 122.554688 190.734375 122.851562 190.269531 C 123.21875 189.699219 124.097656 189.527344 124.820312 189.878906 C 125.542969 190.234375 125.855469 190.984375 125.503906 191.5625 C 125.222656 192.035156 124.582031 192.242188 123.953125 192.109375 C 123.789062 192.371094 123.628906 192.632812 123.46875 192.890625 C 124.859375 193.566406 126.265625 194.21875 127.683594 194.847656 C 127.128906 192.410156 126.652344 189.976562 126.253906 187.554688 C 124.214844 188.378906 122.132812 189.15625 120.003906 189.886719 C 120.773438 190.746094 121.621094 191.597656 122.546875 192.441406 C 122.585938 192.460938 122.625 192.480469 122.664062 192.5 C 122.828125 192.242188 122.992188 191.980469 123.15625 191.722656 " fill-opacity="1" fill-rule="nonzero"/><path fill="#107e3f" d="M 132.667969 190.464844 C 132.527344 190.734375 132.382812 191.003906 132.238281 191.273438 C 132.707031 191.636719 132.890625 192.210938 132.632812 192.695312 C 132.320312 193.292969 131.453125 193.523438 130.703125 193.203125 C 129.953125 192.882812 129.621094 192.140625 129.949219 191.550781 C 130.21875 191.070312 130.835938 190.839844 131.449219 190.933594 C 131.59375 190.667969 131.742188 190.402344 131.886719 190.132812 C 130.53125 189.550781 129.183594 188.945312 127.851562 188.320312 C 128.285156 190.734375 128.800781 193.160156 129.394531 195.59375 C 131.929688 194.5 134.394531 193.34375 136.785156 192.125 C 135.402344 191.59375 134.03125 191.042969 132.667969 190.464844 " fill-opacity="1" fill-rule="nonzero"/><path fill="#9c4a18" d="M 130.902344 196.226562 C 132.335938 196.820312 133.785156 197.394531 135.242188 197.941406 C 135.375 197.667969 135.507812 197.394531 135.640625 197.121094 C 135.136719 196.765625 134.929688 196.191406 135.171875 195.703125 C 135.46875 195.097656 136.320312 194.84375 137.082031 195.125 C 137.84375 195.410156 138.234375 196.125 137.957031 196.738281 C 137.730469 197.234375 137.117188 197.503906 136.476562 197.429688 C 136.347656 197.707031 136.21875 197.980469 136.085938 198.253906 C 137.550781 198.792969 139.023438 199.308594 140.503906 199.804688 C 139.664062 197.425781 138.910156 195.050781 138.238281 192.675781 C 135.867188 193.921875 133.421875 195.105469 130.902344 196.226562 " fill-opacity="1" fill-rule="nonzero"/><path fill="#107e3f" d="M 144.949219 194.96875 C 144.835938 195.25 144.726562 195.53125 144.613281 195.8125 C 145.117188 196.128906 145.367188 196.6875 145.171875 197.191406 C 144.929688 197.816406 144.09375 198.128906 143.3125 197.882812 C 142.53125 197.632812 142.109375 196.921875 142.371094 196.304688 C 142.582031 195.800781 143.167969 195.511719 143.789062 195.550781 C 143.902344 195.269531 144.015625 194.988281 144.132812 194.710938 C 142.714844 194.257812 141.308594 193.78125 139.914062 193.285156 C 140.625 195.652344 141.414062 198.019531 142.292969 200.382812 C 144.679688 199.054688 146.992188 197.671875 149.226562 196.230469 C 147.792969 195.832031 146.367188 195.414062 144.949219 194.96875 " fill-opacity="1" fill-rule="nonzero"/><path fill="#9c4a18" d="M 143.859375 200.875 C 145.359375 201.328125 146.863281 201.761719 148.375 202.171875 C 148.476562 201.886719 148.574219 201.601562 148.671875 201.316406 C 148.128906 201.011719 147.859375 200.457031 148.039062 199.949219 C 148.265625 199.316406 149.085938 198.984375 149.871094 199.195312 C 150.660156 199.40625 151.136719 200.082031 150.929688 200.71875 C 150.761719 201.234375 150.183594 201.558594 149.539062 201.550781 C 149.445312 201.835938 149.347656 202.121094 149.25 202.40625 C 150.765625 202.804688 152.289062 203.179688 153.820312 203.53125 C 152.707031 201.246094 151.679688 198.945312 150.738281 196.644531 C 148.523438 198.105469 146.230469 199.519531 143.859375 200.875 " fill-opacity="1" fill-rule="nonzero"/><path fill="#107e3f" d="M 162.066406 199.160156 C 160.59375 198.894531 159.128906 198.609375 157.667969 198.300781 C 157.589844 198.589844 157.511719 198.878906 157.433594 199.171875 C 157.972656 199.441406 158.285156 199.972656 158.148438 200.496094 C 157.980469 201.140625 157.1875 201.527344 156.382812 201.355469 C 155.578125 201.179688 155.078125 200.511719 155.265625 199.871094 C 155.417969 199.351562 155.960938 199.007812 156.585938 198.988281 C 156.664062 198.699219 156.746094 198.410156 156.828125 198.117188 C 155.367188 197.800781 153.917969 197.457031 152.472656 197.09375 C 153.449219 199.382812 154.515625 201.667969 155.664062 203.945312 C 157.882812 202.398438 160.015625 200.800781 162.066406 199.160156 " fill-opacity="1" fill-rule="nonzero"/><path fill="#9c4a18" d="M 157.28125 204.285156 C 158.820312 204.601562 160.371094 204.890625 161.921875 205.15625 C 161.984375 204.863281 162.050781 204.570312 162.113281 204.277344 C 161.539062 204.023438 161.199219 203.496094 161.324219 202.972656 C 161.472656 202.324219 162.246094 201.914062 163.054688 202.050781 C 163.863281 202.1875 164.414062 202.816406 164.285156 203.46875 C 164.179688 204 163.644531 204.378906 163.003906 204.425781 C 162.941406 204.71875 162.878906 205.011719 162.816406 205.308594 C 164.371094 205.5625 165.929688 205.796875 167.492188 206.003906 C 166.113281 203.828125 164.820312 201.636719 163.617188 199.429688 C 161.585938 201.09375 159.476562 202.714844 157.28125 204.285156 " fill-opacity="1" fill-rule="nonzero"/><path fill="#107e3f" d="M 170.695312 200.433594 C 170.652344 200.730469 170.609375 201.027344 170.566406 201.324219 C 171.136719 201.542969 171.507812 202.042969 171.433594 202.574219 C 171.339844 203.230469 170.601562 203.695312 169.78125 203.59375 C 168.957031 203.496094 168.382812 202.878906 168.492188 202.222656 C 168.582031 201.691406 169.085938 201.296875 169.699219 201.21875 C 169.746094 200.925781 169.792969 200.628906 169.839844 200.332031 C 168.351562 200.148438 166.871094 199.945312 165.390625 199.714844 C 166.632812 201.90625 167.957031 204.082031 169.375 206.242188 C 171.390625 204.496094 173.324219 202.707031 175.167969 200.882812 C 173.675781 200.757812 172.183594 200.605469 170.695312 200.433594 " fill-opacity="1" fill-rule="nonzero"/><path fill="#9c4a18" d="M 171.019531 206.429688 C 172.589844 206.597656 174.160156 206.746094 175.734375 206.867188 C 175.765625 206.566406 175.792969 206.269531 175.824219 205.972656 C 175.21875 205.773438 174.820312 205.28125 174.878906 204.746094 C 174.953125 204.085938 175.671875 203.609375 176.492188 203.667969 C 177.308594 203.730469 177.933594 204.304688 177.882812 204.96875 C 177.839844 205.503906 177.355469 205.929688 176.722656 206.039062 C 176.695312 206.335938 176.671875 206.632812 176.644531 206.933594 C 178.21875 207.042969 179.796875 207.128906 181.375 207.191406 C 179.742188 205.15625 178.195312 203.089844 176.738281 201.007812 C 174.917969 202.851562 173.011719 204.660156 171.019531 206.429688 " fill-opacity="1" fill-rule="nonzero"/><path fill="#107e3f" d="M 183.898438 201.351562 C 183.886719 201.652344 183.878906 201.949219 183.871094 202.25 C 184.464844 202.414062 184.890625 202.878906 184.882812 203.414062 C 184.871094 204.078125 184.1875 204.605469 183.359375 204.582031 C 182.53125 204.5625 181.886719 204 181.917969 203.335938 C 181.941406 202.800781 182.398438 202.363281 183 202.226562 C 183.011719 201.925781 183.023438 201.628906 183.03125 201.328125 C 181.53125 201.285156 180.035156 201.21875 178.539062 201.128906 C 180.027344 203.195312 181.605469 205.238281 183.273438 207.253906 C 185.066406 205.328125 186.773438 203.371094 188.394531 201.386719 C 186.898438 201.398438 185.398438 201.386719 183.898438 201.351562 " fill-opacity="1" fill-rule="nonzero"/><path fill="#9c4a18" d="M 184.929688 207.289062 C 186.511719 207.3125 188.089844 207.3125 189.667969 207.285156 C 189.664062 206.988281 189.65625 206.6875 189.648438 206.386719 C 189.027344 206.246094 188.574219 205.792969 188.566406 205.257812 C 188.5625 204.59375 189.222656 204.050781 190.042969 204.035156 C 190.863281 204.019531 191.550781 204.535156 191.578125 205.199219 C 191.601562 205.734375 191.167969 206.203125 190.554688 206.371094 C 190.5625 206.667969 190.570312 206.96875 190.582031 207.265625 C 192.160156 207.230469 193.738281 207.171875 195.316406 207.085938 C 193.449219 205.210938 191.667969 203.304688 189.972656 201.363281 C 188.378906 203.367188 186.699219 205.34375 184.929688 207.289062 " fill-opacity="1" fill-rule="nonzero"/><path fill="#107e3f" d="M 197.132812 201.046875 C 197.160156 201.34375 197.183594 201.644531 197.210938 201.941406 C 197.820312 202.050781 198.300781 202.472656 198.351562 203.007812 C 198.421875 203.664062 197.804688 204.253906 196.976562 204.308594 C 196.152344 204.363281 195.441406 203.863281 195.398438 203.203125 C 195.359375 202.667969 195.757812 202.1875 196.339844 202 C 196.316406 201.699219 196.292969 201.402344 196.269531 201.105469 C 194.773438 201.199219 193.273438 201.269531 191.777344 201.316406 C 193.5 203.234375 195.3125 205.121094 197.210938 206.972656 C 198.765625 204.890625 200.230469 202.785156 201.609375 200.664062 C 200.121094 200.816406 198.628906 200.941406 197.132812 201.046875 " fill-opacity="1" fill-rule="nonzero"/><path fill="#9c4a18" d="M 198.863281 206.851562 C 200.4375 206.730469 202.007812 206.582031 203.578125 206.410156 C 203.535156 206.113281 203.492188 205.816406 203.449219 205.519531 C 202.8125 205.4375 202.308594 205.03125 202.238281 204.496094 C 202.152344 203.835938 202.746094 203.238281 203.558594 203.144531 C 204.375 203.054688 205.121094 203.503906 205.226562 204.160156 C 205.3125 204.691406 204.9375 205.199219 204.347656 205.421875 C 204.390625 205.714844 204.4375 206.011719 204.480469 206.308594 C 206.046875 206.128906 207.609375 205.921875 209.167969 205.691406 C 207.085938 204 205.089844 202.269531 203.175781 200.496094 C 201.824219 202.636719 200.390625 204.753906 198.863281 206.851562 " fill-opacity="1" fill-rule="nonzero"/><path fill="#107e3f" d="M 210.261719 199.519531 C 210.320312 199.8125 210.382812 200.105469 210.445312 200.402344 C 211.0625 200.457031 211.589844 200.828125 211.707031 201.355469 C 211.851562 202.003906 211.308594 202.644531 210.492188 202.777344 C 209.675781 202.90625 208.914062 202.476562 208.789062 201.824219 C 208.6875 201.292969 209.027344 200.78125 209.585938 200.539062 C 209.527344 200.246094 209.46875 199.949219 209.40625 199.65625 C 207.929688 199.890625 206.449219 200.097656 204.964844 200.285156 C 206.90625 202.03125 208.929688 203.738281 211.039062 205.398438 C 212.339844 203.1875 213.546875 200.960938 214.671875 198.722656 C 213.207031 199.011719 211.734375 199.277344 210.261719 199.519531 " fill-opacity="1" fill-rule="nonzero"/><path fill="#9c4a18" d="M 212.671875 205.128906 C 214.222656 204.859375 215.769531 204.566406 217.308594 204.25 C 217.230469 203.960938 217.152344 203.667969 217.074219 203.378906 C 216.433594 203.355469 215.878906 202.996094 215.746094 202.472656 C 215.585938 201.828125 216.101562 201.175781 216.902344 201.007812 C 217.703125 200.84375 218.5 201.21875 218.683594 201.859375 C 218.832031 202.382812 218.519531 202.917969 217.957031 203.195312 C 218.035156 203.484375 218.117188 203.773438 218.195312 204.066406 C 219.734375 203.738281 221.261719 203.390625 222.785156 203.015625 C 220.511719 201.53125 218.320312 199.996094 216.210938 198.414062 C 215.117188 200.664062 213.9375 202.902344 212.671875 205.128906 " fill-opacity="1" fill-rule="nonzero"/><path fill="#107e3f" d="M 223.144531 196.785156 C 223.242188 197.070312 223.335938 197.355469 223.433594 197.640625 C 224.054688 197.636719 224.621094 197.957031 224.800781 198.472656 C 225.019531 199.101562 224.554688 199.789062 223.757812 199.996094 C 222.960938 200.203125 222.152344 199.84375 221.953125 199.207031 C 221.789062 198.691406 222.070312 198.152344 222.59375 197.859375 C 222.5 197.574219 222.40625 197.285156 222.3125 197 C 220.871094 197.367188 219.421875 197.714844 217.964844 198.035156 C 220.101562 199.589844 222.316406 201.097656 224.613281 202.550781 C 225.644531 200.234375 226.585938 197.910156 227.445312 195.582031 C 226.019531 196.007812 224.585938 196.40625 223.144531 196.785156 " fill-opacity="1" fill-rule="nonzero"/><path fill="#9c4a18" d="M 226.207031 202.128906 C 227.71875 201.71875 229.222656 201.28125 230.71875 200.824219 C 230.605469 200.542969 230.492188 200.261719 230.382812 199.980469 C 229.738281 200.015625 229.148438 199.714844 228.953125 199.207031 C 228.714844 198.582031 229.15625 197.882812 229.929688 197.644531 C 230.710938 197.402344 231.546875 197.703125 231.804688 198.324219 C 232.011719 198.828125 231.765625 199.386719 231.238281 199.714844 C 231.351562 199.996094 231.464844 200.277344 231.578125 200.554688 C 233.070312 200.089844 234.550781 199.597656 236.023438 199.082031 C 233.585938 197.824219 231.222656 196.503906 228.9375 195.132812 C 228.113281 197.46875 227.203125 199.800781 226.207031 202.128906 " fill-opacity="1" fill-rule="nonzero"/><path fill="#107e3f" d="M 235.652344 192.863281 C 235.78125 193.136719 235.910156 193.414062 236.039062 193.6875 C 236.65625 193.625 237.261719 193.890625 237.496094 194.382812 C 237.789062 194.988281 237.40625 195.714844 236.636719 195.996094 C 235.867188 196.273438 235.019531 195.996094 234.746094 195.382812 C 234.523438 194.886719 234.738281 194.320312 235.230469 193.984375 C 235.101562 193.707031 234.976562 193.429688 234.851562 193.15625 C 233.457031 193.65625 232.054688 194.136719 230.640625 194.59375 C 232.949219 195.9375 235.332031 197.226562 237.789062 198.453125 C 238.539062 196.054688 239.207031 193.660156 239.792969 191.265625 C 238.425781 191.820312 237.042969 192.351562 235.652344 192.863281 " fill-opacity="1" fill-rule="nonzero"/><path fill="#9c4a18" d="M 239.324219 197.882812 C 240.78125 197.332031 242.226562 196.757812 243.660156 196.160156 C 243.515625 195.894531 243.375 195.625 243.230469 195.355469 C 242.59375 195.453125 241.96875 195.207031 241.714844 194.722656 C 241.40625 194.121094 241.765625 193.390625 242.507812 193.078125 C 243.253906 192.765625 244.121094 192.984375 244.449219 193.574219 C 244.714844 194.054688 244.535156 194.636719 244.046875 195.011719 C 244.195312 195.28125 244.339844 195.546875 244.488281 195.816406 C 245.917969 195.210938 247.335938 194.582031 248.738281 193.929688 C 246.167969 192.914062 243.664062 191.824219 241.230469 190.675781 C 240.675781 193.074219 240.042969 195.476562 239.324219 197.882812 " fill-opacity="1" fill-rule="nonzero"/><path fill="#107e3f" d="M 247.65625 187.789062 C 247.8125 188.050781 247.972656 188.3125 248.132812 188.574219 C 248.742188 188.453125 249.367188 188.660156 249.660156 189.125 C 250.023438 189.699219 249.726562 190.457031 248.992188 190.808594 C 248.261719 191.15625 247.382812 190.960938 247.039062 190.378906 C 246.761719 189.90625 246.910156 189.328125 247.359375 188.941406 C 247.203125 188.679688 247.042969 188.417969 246.886719 188.15625 C 245.558594 188.785156 244.214844 189.394531 242.863281 189.980469 C 245.3125 191.097656 247.835938 192.152344 250.421875 193.136719 C 250.894531 190.683594 251.28125 188.242188 251.59375 185.8125 C 250.292969 186.492188 248.980469 187.152344 247.65625 187.789062 " fill-opacity="1" fill-rule="nonzero"/><path fill="#9c4a18" d="M 251.886719 192.425781 C 252.46875 192.136719 253.050781 191.839844 253.628906 191.546875 C 254.296875 190.886719 254.914062 190.222656 255.484375 189.554688 C 255.484375 189.550781 255.480469 189.546875 255.480469 189.542969 C 254.859375 189.703125 254.207031 189.515625 253.902344 189.058594 C 253.523438 188.496094 253.792969 187.734375 254.5 187.351562 C 255.207031 186.972656 256.09375 187.105469 256.488281 187.660156 C 256.585938 187.796875 256.636719 187.945312 256.660156 188.09375 C 257.015625 187.617188 257.34375 187.136719 257.648438 186.65625 C 256.0625 186.160156 254.496094 185.636719 252.953125 185.089844 C 252.675781 187.523438 252.320312 189.96875 251.886719 192.425781 " fill-opacity="1" fill-rule="nonzero"/><path fill="#107e3f" d="M 259.585938 182.339844 C 259.632812 182.324219 259.679688 182.316406 259.730469 182.304688 C 259.875 181.851562 259.996094 181.394531 260.097656 180.941406 C 259.738281 181.164062 259.382812 181.386719 259.023438 181.609375 C 259.210938 181.851562 259.398438 182.09375 259.585938 182.339844 " fill-opacity="1" fill-rule="nonzero"/><path fill="#107e3f" d="M 258.859375 182.78125 C 258.671875 182.535156 258.484375 182.289062 258.300781 182.046875 C 257.046875 182.796875 255.78125 183.53125 254.5 184.242188 C 255.765625 184.675781 257.050781 185.089844 258.34375 185.488281 C 258.539062 185.136719 258.722656 184.785156 258.886719 184.433594 C 258.820312 184.375 258.753906 184.3125 258.703125 184.238281 C 258.371094 183.796875 258.457031 183.207031 258.859375 182.78125 " fill-opacity="1" fill-rule="nonzero"/><g clip-path="url(#1b4ce85627)"><path fill="#9b2c32" d="M 259.785156 166.65625 C 253.0625 158.8125 232.425781 152.710938 205.933594 150.738281 C 205.75 150.722656 205.566406 150.710938 205.382812 150.699219 C 205.535156 151.121094 205.691406 151.542969 205.84375 151.976562 C 205.992188 152.398438 206.140625 152.824219 206.285156 153.253906 C 231.5 155.1875 251.730469 161.070312 257.898438 168.269531 C 259.136719 169.714844 259.765625 171.179688 259.765625 172.621094 C 259.765625 172.945312 259.734375 173.273438 259.671875 173.59375 C 258.191406 181.265625 239.78125 188.375 213.863281 191.277344 C 213.855469 191.277344 213.851562 191.277344 213.84375 191.277344 C 205.441406 192.222656 196.578125 192.695312 187.5 192.695312 C 178.410156 192.695312 169.546875 192.222656 161.160156 191.28125 C 161.152344 191.28125 161.148438 191.277344 161.140625 191.277344 C 135.21875 188.375 116.8125 181.265625 115.328125 173.597656 C 115.269531 173.273438 115.234375 172.945312 115.234375 172.621094 C 115.234375 171.179688 115.863281 169.714844 117.101562 168.269531 C 123.273438 161.070312 143.5 155.1875 168.71875 153.253906 C 168.859375 152.824219 169.011719 152.398438 169.160156 151.976562 C 169.308594 151.542969 169.46875 151.121094 169.621094 150.699219 C 169.433594 150.710938 169.25 150.722656 169.066406 150.738281 C 142.574219 152.710938 121.941406 158.8125 115.214844 166.65625 C 113.582031 168.566406 112.75 170.570312 112.75 172.621094 C 112.75 173.097656 112.800781 173.585938 112.890625 174.066406 C 114.632812 183.082031 133.019531 190.621094 160.882812 193.746094 C 169.363281 194.695312 178.316406 195.175781 187.5 195.175781 C 196.667969 195.175781 205.628906 194.691406 214.121094 193.742188 C 241.980469 190.621094 260.371094 183.082031 262.109375 174.066406 C 262.203125 173.589844 262.25 173.101562 262.25 172.621094 C 262.25 170.570312 261.421875 168.566406 259.785156 166.65625 " fill-opacity="1" fill-rule="nonzero"/></g><path fill="#ecc991" d="M 180.050781 166.640625 C 183.523438 176.820312 189.429688 185.699219 196.992188 192.433594 C 202.90625 192.214844 208.597656 191.789062 213.980469 191.1875 C 213.941406 190.773438 213.902344 190.363281 213.863281 189.953125 C 213.554688 186.835938 213.195312 183.796875 212.785156 180.84375 C 212.238281 176.910156 211.601562 173.125 210.882812 169.519531 C 210.628906 168.230469 210.363281 166.96875 210.085938 165.726562 C 202.972656 166.390625 195.382812 166.75 187.5 166.75 C 184.984375 166.75 182.503906 166.710938 180.050781 166.640625 " fill-opacity="1" fill-rule="nonzero"/><path fill="#8f7c5c" d="M 164.914062 165.726562 C 164.636719 166.96875 164.371094 168.234375 164.117188 169.523438 C 163.398438 173.128906 162.761719 176.914062 162.214844 180.847656 C 161.808594 183.800781 161.445312 186.839844 161.140625 189.953125 C 161.097656 190.363281 161.058594 190.773438 161.019531 191.1875 C 168.097656 191.980469 175.703125 192.464844 183.644531 192.582031 C 178.058594 185.097656 174.078125 176.125 172.277344 166.289062 C 169.773438 166.136719 167.316406 165.953125 164.914062 165.726562 " fill-opacity="1" fill-rule="nonzero"/><path fill="#891309" d="M 177.601562 182.628906 C 172.269531 182.289062 167.121094 181.6875 162.214844 180.847656 C 162.761719 176.914062 163.398438 173.128906 164.117188 169.523438 C 167.078125 169.984375 170.117188 170.363281 173.234375 170.648438 C 174.300781 174.84375 175.773438 178.851562 177.601562 182.628906 " fill-opacity="1" fill-rule="nonzero"/><path fill="#e41120" d="M 212.785156 180.84375 C 205.179688 182.148438 196.984375 182.882812 188.441406 182.929688 C 185.839844 179.328125 183.609375 175.390625 181.804688 171.191406 C 183.683594 171.261719 185.582031 171.296875 187.5 171.296875 C 195.675781 171.296875 203.535156 170.671875 210.882812 169.519531 C 211.601562 173.125 212.238281 176.910156 212.785156 180.84375 " fill-opacity="1" fill-rule="nonzero"/><path fill="#b79f73" d="M 171.199219 154.582031 C 173.1875 154.714844 175.203125 154.824219 177.246094 154.90625 C 176.808594 151.839844 176.578125 148.699219 176.578125 145.5 C 176.578125 141.726562 176.894531 138.039062 177.5 134.457031 C 175.585938 136.816406 173.78125 139.828125 172.101562 143.40625 C 171.511719 146.957031 171.199219 150.613281 171.199219 154.347656 C 171.199219 154.425781 171.199219 154.503906 171.199219 154.582031 " fill-opacity="1" fill-rule="nonzero"/><g clip-path="url(#21811d4f12)"><path fill="#ecc991" d="M 177.246094 154.90625 C 180.597656 155.042969 184.019531 155.113281 187.5 155.113281 C 194.277344 155.113281 200.84375 154.84375 207.074219 154.347656 C 206.816406 153.523438 206.554688 152.71875 206.285156 151.929688 C 206.140625 151.496094 205.992188 151.070312 205.84375 150.652344 C 205.691406 150.21875 205.535156 149.792969 205.378906 149.375 C 200.5625 136.375 194.320312 128.53125 187.5 128.53125 C 183.972656 128.53125 180.601562 130.632812 177.5 134.457031 C 176.894531 138.039062 176.578125 141.726562 176.578125 145.5 C 176.578125 148.699219 176.808594 151.839844 177.246094 154.90625 " fill-opacity="1" fill-rule="nonzero"/></g><path fill="#ac1413" d="M 188.441406 182.929688 C 188.128906 182.933594 187.816406 182.933594 187.5 182.933594 C 184.140625 182.933594 180.839844 182.832031 177.601562 182.628906 C 175.773438 178.851562 174.300781 174.84375 173.234375 170.648438 C 176.035156 170.90625 178.898438 171.089844 181.804688 171.191406 C 183.609375 175.390625 185.839844 179.328125 188.441406 182.929688 " fill-opacity="1" fill-rule="nonzero"/><path fill="#b79f73" d="M 181.804688 171.191406 C 178.898438 171.089844 176.035156 170.90625 173.234375 170.648438 C 172.863281 169.214844 172.546875 167.761719 172.277344 166.289062 C 174.820312 166.445312 177.417969 166.5625 180.050781 166.640625 C 180.582031 168.191406 181.164062 169.707031 181.804688 171.191406 " fill-opacity="1" fill-rule="nonzero"/><path fill="#b79f73" d="M 196.992188 192.433594 C 193.882812 192.550781 190.71875 192.613281 187.5 192.613281 C 186.207031 192.613281 184.921875 192.601562 183.644531 192.582031 C 181.347656 189.503906 179.316406 186.167969 177.601562 182.628906 C 180.839844 182.832031 184.140625 182.933594 187.5 182.933594 C 187.816406 182.933594 188.128906 182.933594 188.441406 182.929688 C 190.964844 186.429688 193.835938 189.621094 196.992188 192.433594 " fill-opacity="1" fill-rule="nonzero"/><path fill="#8f7c5c" d="M 171.199219 154.347656 C 171.199219 150.613281 171.511719 146.957031 172.101562 143.40625 C 171.238281 145.25 170.410156 147.242188 169.621094 149.375 C 169.464844 149.792969 169.308594 150.21875 169.15625 150.652344 C 169.007812 151.070312 168.859375 151.496094 168.714844 151.929688 C 168.445312 152.71875 168.183594 153.523438 167.925781 154.347656 C 169.007812 154.433594 170.101562 154.511719 171.199219 154.582031 C 171.199219 154.503906 171.199219 154.425781 171.199219 154.347656 " fill-opacity="1" fill-rule="nonzero"/><path fill="#1e7043" d="M 171.199219 154.582031 C 171.214844 158.589844 171.582031 162.503906 172.277344 166.289062 C 174.820312 166.445312 177.417969 166.5625 180.050781 166.640625 C 178.773438 162.890625 177.824219 158.964844 177.246094 154.90625 C 175.203125 154.824219 173.1875 154.714844 171.199219 154.582031 " fill-opacity="1" fill-rule="nonzero"/><path fill="#144b2d" d="M 171.199219 154.582031 C 170.101562 154.511719 169.007812 154.433594 167.925781 154.347656 C 166.824219 157.859375 165.816406 161.667969 164.914062 165.726562 C 167.316406 165.953125 169.773438 166.136719 172.277344 166.289062 C 171.582031 162.503906 171.214844 158.589844 171.199219 154.582031 " fill-opacity="1" fill-rule="nonzero"/><path fill="#088742" d="M 177.246094 154.90625 C 177.824219 158.964844 178.773438 162.890625 180.050781 166.640625 C 182.503906 166.710938 184.984375 166.75 187.5 166.75 C 195.382812 166.75 202.972656 166.390625 210.085938 165.726562 C 209.1875 161.664062 208.179688 157.859375 207.074219 154.347656 C 200.84375 154.84375 194.277344 155.113281 187.5 155.113281 C 184.019531 155.113281 180.597656 155.042969 177.246094 154.90625 " fill-opacity="1" fill-rule="nonzero"/><g clip-path="url(#98a99a05eb)"><path fill="#180f0a" d="M 235.023438 244.007812 C 233.570312 244.566406 232.066406 245 230.542969 245.320312 C 217.601562 248.058594 201.832031 244.863281 191.464844 236.554688 C 190.046875 235.421875 188.886719 234.082031 188.109375 232.417969 C 185.496094 226.804688 189.496094 219.691406 195.726562 220.136719 C 200.949219 220.515625 205.027344 224.449219 208.28125 228.1875 C 211.785156 232.214844 216.167969 235.457031 221.242188 237.214844 C 221.53125 237.316406 221.828125 237.414062 222.125 237.511719 C 216.511719 237.421875 212.269531 235.070312 212.136719 234.996094 C 215.839844 237.535156 220.226562 238.480469 224.070312 238.894531 C 227.355469 239.246094 231.5 238.929688 232.453125 238.773438 C 232.898438 238.703125 233.351562 238.601562 233.800781 238.46875 C 233.804688 238.46875 233.804688 238.46875 233.804688 238.46875 C 233.804688 238.46875 233.808594 238.46875 233.808594 238.464844 C 233.8125 238.464844 233.8125 238.464844 233.8125 238.464844 C 235.375 238.003906 236.871094 237.15625 237.683594 235.71875 C 238.410156 234.4375 238.671875 233.007812 237.429688 231.507812 C 239.542969 233.351562 244.195312 240.472656 235.023438 244.007812 " fill-opacity="1" fill-rule="nonzero"/></g><g clip-path="url(#952ddabac6)"><path fill="#180f0a" d="M 143.355469 244.007812 C 144.808594 244.566406 146.308594 245 147.832031 245.320312 C 160.777344 248.058594 176.542969 244.863281 186.914062 236.554688 C 188.328125 235.421875 189.492188 234.082031 190.265625 232.417969 C 192.882812 226.804688 188.878906 219.691406 182.652344 220.136719 C 177.429688 220.515625 173.351562 224.449219 170.097656 228.1875 C 166.589844 232.214844 162.210938 235.457031 157.136719 237.214844 C 156.84375 237.316406 156.550781 237.414062 156.253906 237.511719 C 161.867188 237.421875 166.105469 235.070312 166.238281 234.996094 C 162.539062 237.535156 158.152344 238.480469 154.304688 238.894531 C 151.019531 239.246094 146.878906 238.929688 145.925781 238.773438 C 145.480469 238.703125 145.023438 238.601562 144.574219 238.46875 C 144.570312 238.46875 144.570312 238.46875 144.566406 238.464844 C 143 238.003906 141.503906 237.15625 140.691406 235.71875 C 139.96875 234.4375 139.707031 233.007812 140.945312 231.507812 C 138.835938 233.351562 134.179688 240.472656 143.355469 244.007812 " fill-opacity="1" fill-rule="nonzero"/></g><g fill="#ffffff" fill-opacity="1"><g transform="translate(110.989357, 122.963192)"><g><path d="M -4.09375 -14.9375 C -3.40625 -15.65625 -2.742188 -16.191406 -2.109375 -16.546875 C -1.472656 -16.910156 -0.796875 -17.15625 -0.078125 -17.28125 C 0.0859375 -17.3125 0.285156 -17.304688 0.515625 -17.265625 C 0.742188 -17.222656 0.96875 -17.101562 1.1875 -16.90625 C 1.46875 -16.625 1.609375 -16.285156 1.609375 -15.890625 C 1.617188 -15.492188 1.484375 -15.15625 1.203125 -14.875 C 1.054688 -14.726562 0.910156 -14.625 0.765625 -14.5625 C 0.628906 -14.507812 0.5 -14.472656 0.375 -14.453125 C -0.113281 -14.367188 -0.5625 -14.222656 -0.96875 -14.015625 C -1.382812 -13.816406 -1.816406 -13.488281 -2.265625 -13.03125 C -2.617188 -12.65625 -2.878906 -12.226562 -3.046875 -11.75 C -3.210938 -11.269531 -3.28125 -10.773438 -3.25 -10.265625 C -3.21875 -9.753906 -3.09375 -9.257812 -2.875 -8.78125 C -2.65625 -8.300781 -2.34375 -7.867188 -1.9375 -7.484375 L -1.921875 -7.453125 C -1.484375 -7.035156 -1.015625 -6.71875 -0.515625 -6.5 C -0.015625 -6.28125 0.488281 -6.164062 1 -6.15625 C 1.507812 -6.15625 2.003906 -6.257812 2.484375 -6.46875 C 2.972656 -6.6875 3.414062 -7 3.8125 -7.40625 C 4.582031 -8.195312 5.03125 -9.03125 5.15625 -9.90625 L 3.8125 -11.203125 L 2.453125 -9.796875 C 2.210938 -9.554688 1.921875 -9.429688 1.578125 -9.421875 C 1.234375 -9.410156 0.9375 -9.523438 0.6875 -9.765625 C 0.4375 -10.015625 0.304688 -10.3125 0.296875 -10.65625 C 0.296875 -11.007812 0.414062 -11.304688 0.65625 -11.546875 L 2.953125 -13.9375 C 3.222656 -14.21875 3.554688 -14.359375 3.953125 -14.359375 C 4.359375 -14.367188 4.707031 -14.234375 5 -13.953125 L 7.296875 -11.734375 C 7.878906 -11.171875 8.082031 -10.503906 7.90625 -9.734375 C 7.769531 -9.109375 7.53125 -8.425781 7.1875 -7.6875 C 6.84375 -6.945312 6.328125 -6.222656 5.640625 -5.515625 C 4.929688 -4.773438 4.160156 -4.21875 3.328125 -3.84375 C 2.503906 -3.476562 1.664062 -3.285156 0.8125 -3.265625 C -0.0390625 -3.242188 -0.878906 -3.398438 -1.703125 -3.734375 C -2.523438 -4.066406 -3.285156 -4.578125 -3.984375 -5.265625 L -4.015625 -5.28125 C -4.679688 -5.9375 -5.191406 -6.671875 -5.546875 -7.484375 C -5.898438 -8.296875 -6.085938 -9.132812 -6.109375 -10 C -6.128906 -10.875 -5.96875 -11.738281 -5.625 -12.59375 C -5.289062 -13.445312 -4.78125 -14.226562 -4.09375 -14.9375 Z M -4.09375 -14.9375 "/></g></g></g><g fill="#ffffff" fill-opacity="1"><g transform="translate(123.299302, 110.611395)"><g><path d="M -0.40625 -2 L -2.765625 -13.046875 C -2.859375 -13.429688 -2.847656 -13.785156 -2.734375 -14.109375 C -2.617188 -14.441406 -2.398438 -14.722656 -2.078125 -14.953125 L -1.9375 -15.0625 C -1.613281 -15.289062 -1.28125 -15.40625 -0.9375 -15.40625 C -0.601562 -15.40625 -0.265625 -15.304688 0.078125 -15.109375 L 9.84375 -9.4375 C 10.09375 -9.269531 10.25 -9.144531 10.3125 -9.0625 C 10.539062 -8.75 10.625 -8.40625 10.5625 -8.03125 C 10.507812 -7.65625 10.328125 -7.359375 10.015625 -7.140625 C 9.742188 -6.941406 9.460938 -6.851562 9.171875 -6.875 C 8.890625 -6.894531 8.601562 -6.972656 8.3125 -7.109375 L 6.375 -8.265625 L 1.703125 -4.875 L 2.25 -2.59375 C 2.300781 -2.300781 2.28125 -2.019531 2.1875 -1.75 C 2.09375 -1.476562 1.925781 -1.253906 1.6875 -1.078125 C 1.375 -0.859375 1.039062 -0.78125 0.6875 -0.84375 C 0.332031 -0.90625 0.046875 -1.085938 -0.171875 -1.390625 C -0.234375 -1.472656 -0.28125 -1.566406 -0.3125 -1.671875 C -0.351562 -1.773438 -0.382812 -1.882812 -0.40625 -2 Z M 1.078125 -7.578125 L 4.015625 -9.71875 L 0 -12.15625 Z M 1.078125 -7.578125 "/></g></g></g><g fill="#ffffff" fill-opacity="1"><g transform="translate(137.350536, 100.775605)"><g><path d="M 0.765625 -1.984375 L -3.84375 -11.140625 C -4.019531 -11.492188 -4.039062 -11.863281 -3.90625 -12.25 C -3.78125 -12.632812 -3.546875 -12.914062 -3.203125 -13.09375 L 3.3125 -16.359375 C 3.632812 -16.515625 3.960938 -16.535156 4.296875 -16.421875 C 4.640625 -16.316406 4.890625 -16.101562 5.046875 -15.78125 C 5.210938 -15.445312 5.238281 -15.113281 5.125 -14.78125 C 5.007812 -14.457031 4.789062 -14.21875 4.46875 -14.0625 L -0.765625 -11.421875 L 0.421875 -9.03125 L 4.90625 -11.28125 C 5.226562 -11.445312 5.554688 -11.472656 5.890625 -11.359375 C 6.234375 -11.253906 6.488281 -11.039062 6.65625 -10.71875 C 6.8125 -10.40625 6.832031 -10.082031 6.71875 -9.75 C 6.601562 -9.414062 6.382812 -9.164062 6.0625 -9 L 1.578125 -6.75 L 2.8125 -4.28125 L 8.125 -6.953125 C 8.457031 -7.117188 8.789062 -7.144531 9.125 -7.03125 C 9.457031 -6.925781 9.703125 -6.710938 9.859375 -6.390625 C 10.023438 -6.066406 10.050781 -5.738281 9.9375 -5.40625 C 9.832031 -5.070312 9.613281 -4.820312 9.28125 -4.65625 L 2.6875 -1.359375 C 2.34375 -1.179688 1.976562 -1.148438 1.59375 -1.265625 C 1.21875 -1.390625 0.941406 -1.628906 0.765625 -1.984375 Z M 0.765625 -1.984375 "/></g></g></g><g fill="#ffffff" fill-opacity="1"><g transform="translate(151.248079, 94.076568)"><g><path d="M -2.15625 -11.703125 C -2.28125 -12.078125 -2.253906 -12.441406 -2.078125 -12.796875 C -1.898438 -13.148438 -1.625 -13.390625 -1.25 -13.515625 C -0.851562 -13.640625 -0.476562 -13.613281 -0.125 -13.4375 C 0.226562 -13.257812 0.46875 -12.984375 0.59375 -12.609375 L 3.4375 -3.890625 L 8.515625 -5.546875 C 8.847656 -5.648438 9.175781 -5.617188 9.5 -5.453125 C 9.832031 -5.296875 10.054688 -5.046875 10.171875 -4.703125 C 10.285156 -4.359375 10.253906 -4.019531 10.078125 -3.6875 C 9.910156 -3.363281 9.660156 -3.148438 9.328125 -3.046875 L 2.859375 -0.9375 C 2.484375 -0.8125 2.117188 -0.835938 1.765625 -1.015625 C 1.410156 -1.191406 1.171875 -1.46875 1.046875 -1.84375 Z M -2.15625 -11.703125 "/></g></g></g><g fill="#ffffff" fill-opacity="1"><g transform="translate(165.284827, 89.869046)"><g/></g></g><g fill="#ffffff" fill-opacity="1"><g transform="translate(173.70956, 88.071395)"><g><path d="M 6.96875 -13.828125 C 7.96875 -13.898438 8.820312 -13.859375 9.53125 -13.703125 C 10.238281 -13.546875 10.90625 -13.269531 11.53125 -12.875 C 11.664062 -12.769531 11.804688 -12.625 11.953125 -12.4375 C 12.097656 -12.257812 12.179688 -12.023438 12.203125 -11.734375 C 12.222656 -11.347656 12.101562 -11.007812 11.84375 -10.71875 C 11.59375 -10.425781 11.269531 -10.265625 10.875 -10.234375 C 10.664062 -10.222656 10.488281 -10.242188 10.34375 -10.296875 C 10.195312 -10.347656 10.070312 -10.40625 9.96875 -10.46875 C 9.5625 -10.738281 9.132812 -10.929688 8.6875 -11.046875 C 8.238281 -11.171875 7.695312 -11.210938 7.0625 -11.171875 C 6.539062 -11.140625 6.054688 -11 5.609375 -10.75 C 5.160156 -10.507812 4.773438 -10.191406 4.453125 -9.796875 C 4.140625 -9.410156 3.898438 -8.960938 3.734375 -8.453125 C 3.578125 -7.941406 3.519531 -7.40625 3.5625 -6.84375 L 3.5625 -6.8125 C 3.601562 -6.207031 3.734375 -5.660156 3.953125 -5.171875 C 4.179688 -4.679688 4.484375 -4.257812 4.859375 -3.90625 C 5.242188 -3.5625 5.6875 -3.300781 6.1875 -3.125 C 6.695312 -2.957031 7.238281 -2.894531 7.8125 -2.9375 C 8.90625 -3.007812 9.785156 -3.332031 10.453125 -3.90625 L 10.328125 -5.765625 L 8.390625 -5.625 C 8.046875 -5.601562 7.742188 -5.703125 7.484375 -5.921875 C 7.222656 -6.148438 7.082031 -6.4375 7.0625 -6.78125 C 7.039062 -7.132812 7.144531 -7.441406 7.375 -7.703125 C 7.601562 -7.960938 7.890625 -8.101562 8.234375 -8.125 L 11.53125 -8.34375 C 11.925781 -8.375 12.269531 -8.253906 12.5625 -7.984375 C 12.863281 -7.722656 13.03125 -7.390625 13.0625 -6.984375 L 13.28125 -3.8125 C 13.332031 -3 13.03125 -2.367188 12.375 -1.921875 C 11.863281 -1.554688 11.234375 -1.210938 10.484375 -0.890625 C 9.742188 -0.566406 8.878906 -0.375 7.890625 -0.3125 C 6.867188 -0.238281 5.925781 -0.335938 5.0625 -0.609375 C 4.195312 -0.890625 3.441406 -1.3125 2.796875 -1.875 C 2.148438 -2.445312 1.628906 -3.128906 1.234375 -3.921875 C 0.847656 -4.710938 0.625 -5.597656 0.5625 -6.578125 L 0.5625 -6.609375 C 0.5 -7.546875 0.613281 -8.4375 0.90625 -9.28125 C 1.195312 -10.125 1.625 -10.867188 2.1875 -11.515625 C 2.75 -12.171875 3.4375 -12.703125 4.25 -13.109375 C 5.070312 -13.523438 5.976562 -13.765625 6.96875 -13.828125 Z M 6.96875 -13.828125 "/></g></g></g><g fill="#ffffff" fill-opacity="1"><g transform="translate(191.128745, 87.170817)"><g><path d="M 4.1875 -12.859375 C 4.582031 -12.816406 4.90625 -12.640625 5.15625 -12.328125 C 5.40625 -12.023438 5.507812 -11.675781 5.46875 -11.28125 L 4.828125 -5.21875 C 4.703125 -4.125 4.859375 -3.285156 5.296875 -2.703125 C 5.742188 -2.117188 6.414062 -1.78125 7.3125 -1.6875 C 8.207031 -1.59375 8.925781 -1.78125 9.46875 -2.25 C 10.007812 -2.71875 10.335938 -3.476562 10.453125 -4.53125 L 11.109375 -10.6875 C 11.148438 -11.082031 11.320312 -11.398438 11.625 -11.640625 C 11.9375 -11.890625 12.289062 -11.992188 12.6875 -11.953125 C 13.09375 -11.910156 13.421875 -11.734375 13.671875 -11.421875 C 13.921875 -11.117188 14.023438 -10.769531 13.984375 -10.375 L 13.34375 -4.328125 C 13.238281 -3.335938 13.015625 -2.488281 12.671875 -1.78125 C 12.328125 -1.070312 11.878906 -0.5 11.328125 -0.0625 C 10.773438 0.363281 10.132812 0.660156 9.40625 0.828125 C 8.675781 1.003906 7.867188 1.046875 6.984375 0.953125 C 5.234375 0.765625 3.90625 0.132812 3 -0.9375 C 2.101562 -2.019531 1.757812 -3.523438 1.96875 -5.453125 L 2.625 -11.59375 C 2.664062 -11.988281 2.835938 -12.304688 3.140625 -12.546875 C 3.441406 -12.796875 3.789062 -12.898438 4.1875 -12.859375 Z M 4.1875 -12.859375 "/></g></g></g><g fill="#ffffff" fill-opacity="1"><g transform="translate(207.957082, 89.226172)"><g><path d="M 1.375 -0.953125 L 1.390625 -1 C 1.523438 -1.476562 1.8125 -1.867188 2.25 -2.171875 L 10.9375 -7.953125 L 5.3125 -9.515625 C 4.976562 -9.609375 4.722656 -9.804688 4.546875 -10.109375 C 4.367188 -10.410156 4.328125 -10.726562 4.421875 -11.0625 C 4.515625 -11.40625 4.710938 -11.660156 5.015625 -11.828125 C 5.328125 -12.003906 5.648438 -12.046875 5.984375 -11.953125 L 14.0625 -9.703125 C 14.394531 -9.609375 14.644531 -9.40625 14.8125 -9.09375 C 14.988281 -8.789062 15.03125 -8.46875 14.9375 -8.125 L 14.921875 -8.078125 C 14.796875 -7.617188 14.515625 -7.234375 14.078125 -6.921875 L 5.390625 -1.125 L 11.21875 0.5 C 11.550781 0.59375 11.804688 0.789062 11.984375 1.09375 C 12.160156 1.40625 12.195312 1.734375 12.09375 2.078125 C 12.007812 2.410156 11.8125 2.660156 11.5 2.828125 C 11.195312 2.992188 10.878906 3.03125 10.546875 2.9375 L 2.265625 0.625 C 1.921875 0.53125 1.660156 0.328125 1.484375 0.015625 C 1.316406 -0.285156 1.28125 -0.609375 1.375 -0.953125 Z M 1.375 -0.953125 "/></g></g></g><g fill="#ffffff" fill-opacity="1"><g transform="translate(223.354134, 93.620869)"><g><path d="M 1.984375 -0.484375 L 6.5 -9.90625 C 6.675781 -10.269531 6.953125 -10.519531 7.328125 -10.65625 C 7.703125 -10.789062 8.066406 -10.773438 8.421875 -10.609375 L 8.71875 -10.46875 C 9 -10.332031 9.203125 -10.148438 9.328125 -9.921875 C 9.453125 -9.703125 9.535156 -9.46875 9.578125 -9.21875 L 10.265625 -2.59375 L 15.890625 -6.21875 C 16.367188 -6.53125 16.863281 -6.5625 17.375 -6.3125 L 17.65625 -6.1875 C 18.019531 -6.007812 18.269531 -5.734375 18.40625 -5.359375 C 18.539062 -4.984375 18.519531 -4.613281 18.34375 -4.25 L 13.84375 5.140625 C 13.664062 5.503906 13.390625 5.75 13.015625 5.875 C 12.640625 6.007812 12.269531 5.988281 11.90625 5.8125 C 11.550781 5.644531 11.304688 5.375 11.171875 5 C 11.046875 4.632812 11.070312 4.269531 11.25 3.90625 L 14.078125 -2 L 10.109375 0.4375 C 9.878906 0.570312 9.648438 0.65625 9.421875 0.6875 C 9.191406 0.71875 8.953125 0.675781 8.703125 0.5625 C 8.472656 0.445312 8.296875 0.289062 8.171875 0.09375 C 8.054688 -0.101562 7.984375 -0.332031 7.953125 -0.59375 L 7.34375 -5.140625 L 4.53125 0.734375 C 4.351562 1.097656 4.082031 1.335938 3.71875 1.453125 C 3.363281 1.578125 3.003906 1.554688 2.640625 1.390625 C 2.273438 1.210938 2.03125 0.945312 1.90625 0.59375 C 1.78125 0.238281 1.804688 -0.117188 1.984375 -0.484375 Z M 1.984375 -0.484375 "/></g></g></g><g fill="#ffffff" fill-opacity="1"><g transform="translate(240.315547, 102.110084)"><g><path d="M 1.78125 -1 L 11.546875 -6.6875 C 11.878906 -6.894531 12.21875 -6.992188 12.5625 -6.984375 C 12.914062 -6.984375 13.253906 -6.863281 13.578125 -6.625 L 13.71875 -6.515625 C 14.039062 -6.285156 14.253906 -6.007812 14.359375 -5.6875 C 14.460938 -5.363281 14.472656 -5.007812 14.390625 -4.625 L 12.03125 6.4375 C 11.945312 6.726562 11.875 6.914062 11.8125 7 C 11.582031 7.3125 11.28125 7.5 10.90625 7.5625 C 10.539062 7.625 10.203125 7.539062 9.890625 7.3125 C 9.617188 7.113281 9.441406 6.875 9.359375 6.59375 C 9.285156 6.3125 9.28125 6.015625 9.34375 5.703125 L 9.84375 3.515625 L 5.15625 0.125 L 3.15625 1.34375 C 2.894531 1.488281 2.625 1.554688 2.34375 1.546875 C 2.0625 1.535156 1.800781 1.441406 1.5625 1.265625 C 1.25 1.046875 1.066406 0.753906 1.015625 0.390625 C 0.960938 0.0234375 1.046875 -0.304688 1.265625 -0.609375 C 1.328125 -0.691406 1.398438 -0.765625 1.484375 -0.828125 C 1.578125 -0.890625 1.675781 -0.945312 1.78125 -1 Z M 7.546875 -1.328125 L 10.5 0.8125 L 11.546875 -3.765625 Z M 7.546875 -1.328125 "/></g></g></g><g fill="#ffffff" fill-opacity="1"><g transform="translate(254.032237, 112.320392)"><g><path d="M 2.03125 0.234375 L 9.53125 -7.03125 C 9.820312 -7.320312 10.164062 -7.460938 10.5625 -7.453125 C 10.96875 -7.453125 11.304688 -7.304688 11.578125 -7.015625 L 11.796875 -6.8125 C 12.035156 -6.550781 12.175781 -6.285156 12.21875 -6.015625 C 12.257812 -5.742188 12.257812 -5.457031 12.21875 -5.15625 L 10.859375 3.9375 L 15.71875 -0.765625 C 16 -1.046875 16.332031 -1.179688 16.71875 -1.171875 C 17.113281 -1.160156 17.445312 -1.015625 17.71875 -0.734375 C 18 -0.453125 18.132812 -0.117188 18.125 0.265625 C 18.125 0.660156 17.984375 1 17.703125 1.28125 L 10.203125 8.546875 C 9.910156 8.828125 9.5625 8.960938 9.15625 8.953125 C 8.757812 8.941406 8.421875 8.796875 8.140625 8.515625 L 8.078125 8.453125 C 7.835938 8.191406 7.695312 7.925781 7.65625 7.65625 C 7.613281 7.394531 7.609375 7.109375 7.640625 6.796875 L 9.0625 -2.640625 L 4.015625 2.265625 C 3.734375 2.535156 3.394531 2.664062 3 2.65625 C 2.613281 2.65625 2.285156 2.515625 2.015625 2.234375 C 1.734375 1.953125 1.59375 1.613281 1.59375 1.21875 C 1.601562 0.832031 1.75 0.503906 2.03125 0.234375 Z M 2.03125 0.234375 "/></g></g></g><g fill="#ffffff" fill-opacity="1"><g transform="translate(93.415878, 248.994588)"><g><path d="M 13.34375 -1.421875 C 13.851562 -0.742188 14.207031 -0.101562 14.40625 0.5 C 14.601562 1.101562 14.695312 1.710938 14.6875 2.328125 C 14.6875 2.472656 14.644531 2.640625 14.5625 2.828125 C 14.488281 3.015625 14.363281 3.171875 14.1875 3.296875 C 13.90625 3.515625 13.597656 3.59375 13.265625 3.53125 C 12.941406 3.476562 12.679688 3.3125 12.484375 3.03125 C 12.367188 2.882812 12.296875 2.75 12.265625 2.625 C 12.242188 2.5 12.226562 2.382812 12.21875 2.28125 C 12.21875 1.851562 12.160156 1.445312 12.046875 1.0625 C 11.941406 0.675781 11.75 0.300781 11.46875 -0.0625 C 11.1875 -0.445312 10.851562 -0.75 10.46875 -0.96875 C 10.082031 -1.1875 9.671875 -1.316406 9.234375 -1.359375 C 8.804688 -1.398438 8.367188 -1.359375 7.921875 -1.234375 C 7.484375 -1.109375 7.066406 -0.898438 6.671875 -0.609375 L 6.640625 -0.59375 C 6.265625 -0.300781 5.945312 0.0351562 5.6875 0.421875 C 5.425781 0.816406 5.25 1.222656 5.15625 1.640625 C 5.070312 2.066406 5.070312 2.5 5.15625 2.9375 C 5.238281 3.382812 5.425781 3.804688 5.71875 4.203125 C 6.039062 4.628906 6.378906 4.945312 6.734375 5.15625 C 7.085938 5.375 7.484375 5.535156 7.921875 5.640625 C 8.203125 5.710938 8.425781 5.859375 8.59375 6.078125 C 8.78125 6.328125 8.851562 6.613281 8.8125 6.9375 C 8.769531 7.269531 8.617188 7.53125 8.359375 7.71875 C 8.210938 7.832031 8.054688 7.894531 7.890625 7.90625 C 7.734375 7.925781 7.566406 7.925781 7.390625 7.90625 C 6.710938 7.78125 6.085938 7.53125 5.515625 7.15625 C 4.941406 6.78125 4.378906 6.226562 3.828125 5.5 C 3.335938 4.820312 3 4.109375 2.8125 3.359375 C 2.632812 2.609375 2.597656 1.863281 2.703125 1.125 C 2.816406 0.382812 3.070312 -0.3125 3.46875 -0.96875 C 3.875 -1.625 4.40625 -2.191406 5.0625 -2.671875 L 5.078125 -2.703125 C 5.734375 -3.179688 6.429688 -3.515625 7.171875 -3.703125 C 7.921875 -3.898438 8.664062 -3.945312 9.40625 -3.84375 C 10.15625 -3.738281 10.867188 -3.484375 11.546875 -3.078125 C 12.222656 -2.679688 12.820312 -2.128906 13.34375 -1.421875 Z M 13.34375 -1.421875 "/></g></g></g><g fill="#ffffff" fill-opacity="1"><g transform="translate(102.595392, 261.112585)"><g><path d="M 13.09375 -3.21875 C 13.71875 -2.59375 14.179688 -1.910156 14.484375 -1.171875 C 14.785156 -0.441406 14.9375 0.296875 14.9375 1.046875 C 14.9375 1.796875 14.789062 2.53125 14.5 3.25 C 14.207031 3.96875 13.769531 4.613281 13.1875 5.1875 L 13.171875 5.21875 C 12.585938 5.789062 11.9375 6.210938 11.21875 6.484375 C 10.507812 6.765625 9.769531 6.90625 9 6.90625 C 8.238281 6.90625 7.488281 6.75 6.75 6.4375 C 6.007812 6.125 5.328125 5.648438 4.703125 5.015625 C 4.085938 4.398438 3.628906 3.722656 3.328125 2.984375 C 3.023438 2.242188 2.875 1.5 2.875 0.75 C 2.875 0 3.019531 -0.726562 3.3125 -1.4375 C 3.613281 -2.15625 4.050781 -2.800781 4.625 -3.375 L 4.65625 -3.390625 C 5.226562 -3.960938 5.875 -4.390625 6.59375 -4.671875 C 7.3125 -4.960938 8.050781 -5.101562 8.8125 -5.09375 C 9.582031 -5.09375 10.332031 -4.9375 11.0625 -4.625 C 11.800781 -4.3125 12.476562 -3.84375 13.09375 -3.21875 Z M 6.375 3.4375 C 6.726562 3.800781 7.117188 4.066406 7.546875 4.234375 C 7.972656 4.398438 8.40625 4.472656 8.84375 4.453125 C 9.289062 4.441406 9.722656 4.34375 10.140625 4.15625 C 10.566406 3.96875 10.953125 3.703125 11.296875 3.359375 L 11.328125 3.34375 C 11.671875 3 11.9375 2.613281 12.125 2.1875 C 12.3125 1.769531 12.410156 1.332031 12.421875 0.875 C 12.441406 0.425781 12.367188 -0.0078125 12.203125 -0.4375 C 12.046875 -0.863281 11.785156 -1.257812 11.421875 -1.625 C 11.078125 -1.976562 10.691406 -2.238281 10.265625 -2.40625 C 9.835938 -2.582031 9.398438 -2.660156 8.953125 -2.640625 C 8.515625 -2.628906 8.082031 -2.53125 7.65625 -2.34375 C 7.238281 -2.164062 6.859375 -1.90625 6.515625 -1.5625 L 6.5 -1.53125 C 6.15625 -1.195312 5.882812 -0.816406 5.6875 -0.390625 C 5.488281 0.0351562 5.382812 0.472656 5.375 0.921875 C 5.363281 1.367188 5.441406 1.8125 5.609375 2.25 C 5.773438 2.6875 6.03125 3.082031 6.375 3.4375 Z M 6.375 3.4375 "/></g></g></g><g fill="#ffffff" fill-opacity="1"><g transform="translate(114.779181, 273.07396)"><g><path d="M 1.765625 -0.09375 L 7.171875 -7.390625 C 7.367188 -7.660156 7.640625 -7.820312 7.984375 -7.875 C 8.328125 -7.925781 8.640625 -7.847656 8.921875 -7.640625 L 9.140625 -7.484375 C 9.359375 -7.316406 9.503906 -7.128906 9.578125 -6.921875 C 9.660156 -6.710938 9.6875 -6.5 9.65625 -6.28125 L 9.171875 -0.515625 L 14.546875 -2.6875 C 15.003906 -2.875 15.429688 -2.820312 15.828125 -2.53125 L 16.0625 -2.359375 C 16.332031 -2.148438 16.492188 -1.875 16.546875 -1.53125 C 16.597656 -1.195312 16.523438 -0.894531 16.328125 -0.625 L 10.9375 6.65625 C 10.726562 6.925781 10.453125 7.085938 10.109375 7.140625 C 9.765625 7.203125 9.457031 7.128906 9.1875 6.921875 C 8.90625 6.710938 8.738281 6.4375 8.6875 6.09375 C 8.644531 5.757812 8.726562 5.457031 8.9375 5.1875 L 12.3125 0.625 L 8.53125 2.015625 C 8.3125 2.109375 8.097656 2.148438 7.890625 2.140625 C 7.691406 2.128906 7.503906 2.054688 7.328125 1.921875 C 7.140625 1.785156 7.007812 1.625 6.9375 1.4375 C 6.875 1.25 6.847656 1.03125 6.859375 0.78125 L 7.109375 -3.171875 L 3.75 1.375 C 3.539062 1.65625 3.269531 1.816406 2.9375 1.859375 C 2.601562 1.898438 2.296875 1.820312 2.015625 1.625 C 1.734375 1.414062 1.566406 1.144531 1.515625 0.8125 C 1.472656 0.488281 1.554688 0.1875 1.765625 -0.09375 Z M 1.765625 -0.09375 "/></g></g></g><g fill="#ffffff" fill-opacity="1"><g transform="translate(128.866391, 283.084935)"><g><path d="M 6.03125 -8.25 C 6.195312 -8.550781 6.445312 -8.75 6.78125 -8.84375 C 7.113281 -8.945312 7.4375 -8.914062 7.75 -8.75 L 10.71875 -7.125 C 11.320312 -6.800781 11.816406 -6.425781 12.203125 -6 C 12.585938 -5.570312 12.859375 -5.117188 13.015625 -4.640625 C 13.179688 -4.160156 13.234375 -3.660156 13.171875 -3.140625 C 13.117188 -2.617188 12.953125 -2.101562 12.671875 -1.59375 L 12.65625 -1.5625 C 12.332031 -0.976562 11.945312 -0.523438 11.5 -0.203125 C 11.050781 0.117188 10.566406 0.328125 10.046875 0.421875 C 9.523438 0.523438 8.976562 0.515625 8.40625 0.390625 C 7.84375 0.273438 7.28125 0.0664062 6.71875 -0.234375 L 5.046875 -1.15625 L 3.953125 0.828125 C 3.796875 1.128906 3.550781 1.328125 3.21875 1.421875 C 2.882812 1.523438 2.566406 1.492188 2.265625 1.328125 C 1.953125 1.160156 1.742188 0.910156 1.640625 0.578125 C 1.546875 0.253906 1.578125 -0.0546875 1.734375 -0.359375 Z M 6.09375 -3.109375 L 7.828125 -2.15625 C 8.378906 -1.851562 8.890625 -1.765625 9.359375 -1.890625 C 9.828125 -2.015625 10.175781 -2.296875 10.40625 -2.734375 L 10.421875 -2.75 C 10.691406 -3.25 10.738281 -3.710938 10.5625 -4.140625 C 10.382812 -4.578125 10.019531 -4.941406 9.46875 -5.234375 L 7.765625 -6.171875 Z M 6.09375 -3.109375 "/></g></g></g><g fill="#ffffff" fill-opacity="1"><g transform="translate(141.234175, 289.631343)"><g><path d="M 6.40625 -9.84375 C 6.71875 -9.71875 6.941406 -9.492188 7.078125 -9.171875 C 7.222656 -8.859375 7.234375 -8.539062 7.109375 -8.21875 L 5.21875 -3.28125 C 4.875 -2.394531 4.820312 -1.65625 5.0625 -1.0625 C 5.300781 -0.476562 5.78125 -0.0507812 6.5 0.21875 C 7.226562 0.5 7.875 0.503906 8.4375 0.234375 C 9 -0.0234375 9.445312 -0.582031 9.78125 -1.4375 L 11.703125 -6.453125 C 11.828125 -6.773438 12.046875 -7.003906 12.359375 -7.140625 C 12.679688 -7.285156 13.003906 -7.296875 13.328125 -7.171875 C 13.648438 -7.046875 13.878906 -6.828125 14.015625 -6.515625 C 14.160156 -6.203125 14.171875 -5.882812 14.046875 -5.5625 L 12.15625 -0.65625 C 11.84375 0.15625 11.460938 0.816406 11.015625 1.328125 C 10.566406 1.847656 10.0625 2.226562 9.5 2.46875 C 8.9375 2.71875 8.332031 2.828125 7.6875 2.796875 C 7.039062 2.773438 6.359375 2.625 5.640625 2.34375 C 4.222656 1.800781 3.253906 0.976562 2.734375 -0.125 C 2.210938 -1.226562 2.253906 -2.5625 2.859375 -4.125 L 4.78125 -9.125 C 4.90625 -9.445312 5.125 -9.675781 5.4375 -9.8125 C 5.757812 -9.957031 6.082031 -9.96875 6.40625 -9.84375 Z M 6.40625 -9.84375 "/></g></g></g><g fill="#ffffff" fill-opacity="1"><g transform="translate(155.706165, 294.925894)"><g><path d="M 2.859375 -9.828125 C 2.929688 -10.140625 3.101562 -10.378906 3.375 -10.546875 C 3.65625 -10.710938 3.945312 -10.757812 4.25 -10.6875 L 11.375 -8.953125 C 11.675781 -8.878906 11.910156 -8.707031 12.078125 -8.4375 C 12.242188 -8.164062 12.289062 -7.875 12.21875 -7.5625 C 12.144531 -7.257812 11.96875 -7.023438 11.6875 -6.859375 C 11.414062 -6.691406 11.128906 -6.644531 10.828125 -6.71875 L 8.46875 -7.296875 L 6.59375 0.40625 C 6.519531 0.738281 6.335938 1 6.046875 1.1875 C 5.765625 1.375 5.445312 1.425781 5.09375 1.34375 C 4.757812 1.257812 4.503906 1.066406 4.328125 0.765625 C 4.148438 0.472656 4.097656 0.160156 4.171875 -0.171875 L 6.046875 -7.875 L 3.703125 -8.453125 C 3.398438 -8.523438 3.164062 -8.695312 3 -8.96875 C 2.832031 -9.238281 2.785156 -9.523438 2.859375 -9.828125 Z M 2.859375 -9.828125 "/></g></g></g><g fill="#ffffff" fill-opacity="1"><g transform="translate(168.984389, 297.967852)"><g><path d="M 1.484375 -1.078125 L 2.515625 -9.921875 C 2.554688 -10.253906 2.710938 -10.53125 2.984375 -10.75 C 3.253906 -10.96875 3.566406 -11.054688 3.921875 -11.015625 L 10.1875 -10.28125 C 10.5 -10.25 10.75 -10.109375 10.9375 -9.859375 C 11.125 -9.617188 11.203125 -9.347656 11.171875 -9.046875 C 11.128906 -8.734375 10.988281 -8.484375 10.75 -8.296875 C 10.519531 -8.109375 10.25 -8.03125 9.9375 -8.0625 L 4.890625 -8.640625 L 4.625 -6.34375 L 8.9375 -5.84375 C 9.25 -5.8125 9.5 -5.675781 9.6875 -5.4375 C 9.875 -5.195312 9.945312 -4.921875 9.90625 -4.609375 C 9.875 -4.296875 9.738281 -4.046875 9.5 -3.859375 C 9.257812 -3.679688 8.984375 -3.609375 8.671875 -3.640625 L 4.359375 -4.140625 L 4.09375 -1.765625 L 9.21875 -1.171875 C 9.53125 -1.140625 9.78125 -1 9.96875 -0.75 C 10.164062 -0.507812 10.242188 -0.238281 10.203125 0.0625 C 10.171875 0.375 10.03125 0.625 9.78125 0.8125 C 9.539062 1 9.265625 1.078125 8.953125 1.046875 L 2.609375 0.296875 C 2.253906 0.253906 1.96875 0.0976562 1.75 -0.171875 C 1.53125 -0.441406 1.441406 -0.742188 1.484375 -1.078125 Z M 1.484375 -1.078125 "/></g></g></g><g fill="#ffffff" fill-opacity="1"><g transform="translate(182.92146, 299.41444)"><g><path d="M 1.234375 -10.15625 C 1.222656 -10.5 1.335938 -10.796875 1.578125 -11.046875 C 1.828125 -11.296875 2.128906 -11.421875 2.484375 -11.421875 L 6.4375 -11.46875 C 7.039062 -11.476562 7.601562 -11.410156 8.125 -11.265625 C 8.644531 -11.117188 9.097656 -10.890625 9.484375 -10.578125 C 9.878906 -10.273438 10.1875 -9.890625 10.40625 -9.421875 C 10.632812 -8.960938 10.753906 -8.410156 10.765625 -7.765625 L 10.765625 -7.734375 C 10.773438 -6.828125 10.578125 -6.085938 10.171875 -5.515625 C 9.765625 -4.953125 9.222656 -4.523438 8.546875 -4.234375 L 10.296875 -2.140625 C 10.421875 -1.992188 10.519531 -1.847656 10.59375 -1.703125 C 10.675781 -1.554688 10.71875 -1.390625 10.71875 -1.203125 C 10.726562 -0.847656 10.609375 -0.5625 10.359375 -0.34375 C 10.117188 -0.132812 9.847656 -0.03125 9.546875 -0.03125 C 9.265625 -0.0195312 9.023438 -0.078125 8.828125 -0.203125 C 8.640625 -0.328125 8.46875 -0.476562 8.3125 -0.65625 L 5.828125 -3.71875 L 3.828125 -3.6875 L 3.859375 -1.203125 C 3.859375 -0.859375 3.738281 -0.5625 3.5 -0.3125 C 3.257812 -0.0703125 2.96875 0.0507812 2.625 0.0625 C 2.269531 0.0625 1.96875 -0.0546875 1.71875 -0.296875 C 1.46875 -0.535156 1.34375 -0.828125 1.34375 -1.171875 Z M 3.765625 -9.171875 L 3.796875 -5.90625 L 6.328125 -5.9375 C 6.941406 -5.945312 7.414062 -6.097656 7.75 -6.390625 C 8.082031 -6.691406 8.242188 -7.085938 8.234375 -7.578125 L 8.234375 -7.609375 C 8.222656 -8.160156 8.039062 -8.566406 7.6875 -8.828125 C 7.34375 -9.085938 6.863281 -9.210938 6.25 -9.203125 Z M 3.765625 -9.171875 "/></g></g></g><g fill="#ffffff" fill-opacity="1"><g transform="translate(197.62622, 298.909183)"><g/></g></g><g fill="#ffffff" fill-opacity="1"><g transform="translate(205.391186, 298.020799)"><g><path d="M 1.125 -3.609375 C 1.28125 -3.640625 1.421875 -3.644531 1.546875 -3.625 C 1.671875 -3.601562 1.78125 -3.570312 1.875 -3.53125 C 2.363281 -3.3125 2.859375 -3.160156 3.359375 -3.078125 C 3.867188 -2.992188 4.394531 -3.007812 4.9375 -3.125 C 5.4375 -3.226562 5.804688 -3.398438 6.046875 -3.640625 C 6.296875 -3.890625 6.382812 -4.179688 6.3125 -4.515625 L 6.3125 -4.546875 C 6.269531 -4.703125 6.207031 -4.835938 6.125 -4.953125 C 6.039062 -5.066406 5.90625 -5.15625 5.71875 -5.21875 C 5.53125 -5.289062 5.28125 -5.347656 4.96875 -5.390625 C 4.65625 -5.441406 4.25 -5.476562 3.75 -5.5 C 3.175781 -5.507812 2.640625 -5.546875 2.140625 -5.609375 C 1.648438 -5.679688 1.21875 -5.8125 0.84375 -6 C 0.476562 -6.195312 0.171875 -6.460938 -0.078125 -6.796875 C -0.328125 -7.128906 -0.507812 -7.570312 -0.625 -8.125 L -0.640625 -8.15625 C -0.742188 -8.664062 -0.742188 -9.144531 -0.640625 -9.59375 C -0.535156 -10.039062 -0.34375 -10.445312 -0.0625 -10.8125 C 0.21875 -11.1875 0.578125 -11.5 1.015625 -11.75 C 1.453125 -12.007812 1.960938 -12.203125 2.546875 -12.328125 C 3.890625 -12.609375 5.132812 -12.535156 6.28125 -12.109375 C 6.4375 -12.035156 6.585938 -11.929688 6.734375 -11.796875 C 6.878906 -11.660156 6.976562 -11.472656 7.03125 -11.234375 C 7.09375 -10.921875 7.035156 -10.628906 6.859375 -10.359375 C 6.679688 -10.097656 6.4375 -9.929688 6.125 -9.859375 C 5.90625 -9.816406 5.6875 -9.832031 5.46875 -9.90625 C 4.550781 -10.238281 3.71875 -10.328125 2.96875 -10.171875 C 2.488281 -10.066406 2.148438 -9.894531 1.953125 -9.65625 C 1.753906 -9.414062 1.679688 -9.160156 1.734375 -8.890625 L 1.75 -8.859375 C 1.789062 -8.660156 1.859375 -8.503906 1.953125 -8.390625 C 2.046875 -8.285156 2.191406 -8.195312 2.390625 -8.125 C 2.597656 -8.0625 2.867188 -8.015625 3.203125 -7.984375 C 3.535156 -7.953125 3.953125 -7.925781 4.453125 -7.90625 C 5.046875 -7.875 5.582031 -7.8125 6.0625 -7.71875 C 6.550781 -7.625 6.972656 -7.476562 7.328125 -7.28125 C 7.679688 -7.082031 7.972656 -6.820312 8.203125 -6.5 C 8.429688 -6.175781 8.59375 -5.773438 8.6875 -5.296875 L 8.703125 -5.25 C 8.816406 -4.707031 8.816406 -4.195312 8.703125 -3.71875 C 8.597656 -3.25 8.394531 -2.832031 8.09375 -2.46875 C 7.789062 -2.101562 7.40625 -1.789062 6.9375 -1.53125 C 6.46875 -1.269531 5.9375 -1.078125 5.34375 -0.953125 C 4.601562 -0.796875 3.851562 -0.753906 3.09375 -0.828125 C 2.332031 -0.898438 1.585938 -1.09375 0.859375 -1.40625 C 0.703125 -1.46875 0.566406 -1.570312 0.453125 -1.71875 C 0.335938 -1.875 0.257812 -2.046875 0.21875 -2.234375 C 0.144531 -2.554688 0.195312 -2.847656 0.375 -3.109375 C 0.550781 -3.378906 0.800781 -3.546875 1.125 -3.609375 Z M 1.125 -3.609375 "/></g></g></g><g fill="#ffffff" fill-opacity="1"><g transform="translate(218.591397, 295.100949)"><g><path d="M 2.625 -13.171875 C 3.425781 -13.441406 4.144531 -13.582031 4.78125 -13.59375 C 5.414062 -13.601562 6.019531 -13.515625 6.59375 -13.328125 C 6.75 -13.273438 6.898438 -13.179688 7.046875 -13.046875 C 7.203125 -12.921875 7.316406 -12.757812 7.390625 -12.5625 C 7.503906 -12.226562 7.484375 -11.910156 7.328125 -11.609375 C 7.179688 -11.316406 6.945312 -11.113281 6.625 -11 C 6.457031 -10.9375 6.304688 -10.910156 6.171875 -10.921875 C 6.035156 -10.929688 5.925781 -10.945312 5.84375 -10.96875 C 5.425781 -11.101562 5.019531 -11.175781 4.625 -11.1875 C 4.226562 -11.195312 3.8125 -11.125 3.375 -10.96875 C 2.925781 -10.8125 2.535156 -10.582031 2.203125 -10.28125 C 1.878906 -9.976562 1.628906 -9.625 1.453125 -9.21875 C 1.285156 -8.820312 1.195312 -8.390625 1.1875 -7.921875 C 1.1875 -7.460938 1.265625 -7.003906 1.421875 -6.546875 L 1.4375 -6.515625 C 1.59375 -6.054688 1.816406 -5.644531 2.109375 -5.28125 C 2.398438 -4.925781 2.734375 -4.640625 3.109375 -4.421875 C 3.492188 -4.210938 3.910156 -4.085938 4.359375 -4.046875 C 4.804688 -4.003906 5.257812 -4.0625 5.71875 -4.21875 C 6.21875 -4.394531 6.625 -4.613281 6.9375 -4.875 C 7.25 -5.144531 7.519531 -5.476562 7.75 -5.875 C 7.894531 -6.113281 8.101562 -6.28125 8.375 -6.375 C 8.664062 -6.476562 8.957031 -6.460938 9.25 -6.328125 C 9.539062 -6.191406 9.738281 -5.96875 9.84375 -5.65625 C 9.90625 -5.476562 9.921875 -5.3125 9.890625 -5.15625 C 9.867188 -5 9.820312 -4.847656 9.75 -4.703125 C 9.4375 -4.085938 9.015625 -3.5625 8.484375 -3.125 C 7.953125 -2.6875 7.253906 -2.320312 6.390625 -2.03125 C 5.609375 -1.75 4.828125 -1.628906 4.046875 -1.671875 C 3.265625 -1.722656 2.539062 -1.910156 1.875 -2.234375 C 1.21875 -2.566406 0.632812 -3.019531 0.125 -3.59375 C -0.382812 -4.175781 -0.773438 -4.851562 -1.046875 -5.625 L -1.046875 -5.65625 C -1.316406 -6.425781 -1.429688 -7.191406 -1.390625 -7.953125 C -1.347656 -8.722656 -1.171875 -9.445312 -0.859375 -10.125 C -0.546875 -10.800781 -0.09375 -11.40625 0.5 -11.9375 C 1.09375 -12.46875 1.800781 -12.878906 2.625 -13.171875 Z M 2.625 -13.171875 "/></g></g></g><g fill="#ffffff" fill-opacity="1"><g transform="translate(232.632124, 289.8868)"><g><path d="M -3 -9.890625 C -3.144531 -10.203125 -3.15625 -10.519531 -3.03125 -10.84375 C -2.914062 -11.175781 -2.707031 -11.414062 -2.40625 -11.5625 C -2.09375 -11.707031 -1.769531 -11.71875 -1.4375 -11.59375 C -1.113281 -11.476562 -0.878906 -11.265625 -0.734375 -10.953125 L 3.125 -2.734375 C 3.269531 -2.421875 3.28125 -2.101562 3.15625 -1.78125 C 3.039062 -1.457031 2.828125 -1.222656 2.515625 -1.078125 C 2.210938 -0.929688 1.894531 -0.914062 1.5625 -1.03125 C 1.238281 -1.144531 1.003906 -1.359375 0.859375 -1.671875 Z M -3 -9.890625 "/></g></g></g><g fill="#ffffff" fill-opacity="1"><g transform="translate(240.259067, 286.300044)"><g><path d="M 0.53125 -1.78125 L -4.015625 -9.421875 C -4.191406 -9.710938 -4.238281 -10.023438 -4.15625 -10.359375 C -4.070312 -10.691406 -3.878906 -10.945312 -3.578125 -11.125 L 1.84375 -14.359375 C 2.113281 -14.515625 2.394531 -14.550781 2.6875 -14.46875 C 2.988281 -14.394531 3.21875 -14.226562 3.375 -13.96875 C 3.53125 -13.695312 3.570312 -13.414062 3.5 -13.125 C 3.425781 -12.832031 3.253906 -12.609375 2.984375 -12.453125 L -1.375 -9.84375 L -0.1875 -7.84375 L 3.546875 -10.078125 C 3.816406 -10.234375 4.097656 -10.273438 4.390625 -10.203125 C 4.679688 -10.128906 4.910156 -9.953125 5.078125 -9.671875 C 5.234375 -9.410156 5.273438 -9.132812 5.203125 -8.84375 C 5.128906 -8.550781 4.957031 -8.328125 4.6875 -8.171875 L 0.953125 -5.9375 L 2.171875 -3.890625 L 6.609375 -6.53125 C 6.878906 -6.695312 7.160156 -6.738281 7.453125 -6.65625 C 7.753906 -6.582031 7.988281 -6.410156 8.15625 -6.140625 C 8.3125 -5.867188 8.347656 -5.585938 8.265625 -5.296875 C 8.191406 -5.003906 8.019531 -4.773438 7.75 -4.609375 L 2.25 -1.34375 C 1.945312 -1.164062 1.628906 -1.117188 1.296875 -1.203125 C 0.960938 -1.285156 0.707031 -1.476562 0.53125 -1.78125 Z M 0.53125 -1.78125 "/></g></g></g><g fill="#ffffff" fill-opacity="1"><g transform="translate(252.249103, 278.990474)"><g><path d="M 0.359375 -1.734375 L -5.28125 -8.84375 C -5.488281 -9.113281 -5.570312 -9.414062 -5.53125 -9.75 C -5.488281 -10.09375 -5.328125 -10.375 -5.046875 -10.59375 L -4.859375 -10.75 C -4.617188 -10.9375 -4.378906 -11.039062 -4.140625 -11.0625 C -3.898438 -11.082031 -3.644531 -11.066406 -3.375 -11.015625 L 4.34375 -9.015625 L 0.6875 -13.625 C 0.476562 -13.894531 0.390625 -14.195312 0.421875 -14.53125 C 0.460938 -14.875 0.617188 -15.15625 0.890625 -15.375 C 1.160156 -15.582031 1.460938 -15.664062 1.796875 -15.625 C 2.140625 -15.59375 2.414062 -15.441406 2.625 -15.171875 L 8.265625 -8.078125 C 8.472656 -7.804688 8.554688 -7.492188 8.515625 -7.140625 C 8.472656 -6.796875 8.316406 -6.519531 8.046875 -6.3125 L 7.984375 -6.265625 C 7.742188 -6.066406 7.503906 -5.957031 7.265625 -5.9375 C 7.035156 -5.925781 6.78125 -5.957031 6.5 -6.03125 L -1.484375 -8.0625 L 2.3125 -3.28125 C 2.519531 -3.007812 2.601562 -2.703125 2.5625 -2.359375 C 2.53125 -2.023438 2.378906 -1.753906 2.109375 -1.546875 C 1.828125 -1.328125 1.515625 -1.234375 1.171875 -1.265625 C 0.835938 -1.304688 0.566406 -1.460938 0.359375 -1.734375 Z M 0.359375 -1.734375 "/></g></g></g><g fill="#ffffff" fill-opacity="1"><g transform="translate(264.642378, 268.846091)"><g><path d="M -3.6875 -12.90625 C -3.09375 -13.519531 -2.519531 -13.972656 -1.96875 -14.265625 C -1.414062 -14.566406 -0.832031 -14.765625 -0.21875 -14.859375 C -0.0625 -14.890625 0.109375 -14.878906 0.296875 -14.828125 C 0.492188 -14.785156 0.671875 -14.691406 0.828125 -14.546875 C 1.085938 -14.296875 1.210938 -14.003906 1.203125 -13.671875 C 1.203125 -13.335938 1.085938 -13.050781 0.859375 -12.8125 C 0.734375 -12.675781 0.609375 -12.582031 0.484375 -12.53125 C 0.367188 -12.488281 0.265625 -12.453125 0.171875 -12.421875 C -0.253906 -12.359375 -0.644531 -12.238281 -1 -12.0625 C -1.363281 -11.882812 -1.703125 -11.628906 -2.015625 -11.296875 C -2.347656 -10.953125 -2.585938 -10.566406 -2.734375 -10.140625 C -2.890625 -9.722656 -2.953125 -9.296875 -2.921875 -8.859375 C -2.890625 -8.429688 -2.769531 -8.007812 -2.5625 -7.59375 C -2.363281 -7.175781 -2.085938 -6.800781 -1.734375 -6.46875 L -1.703125 -6.4375 C -1.359375 -6.113281 -0.972656 -5.859375 -0.546875 -5.671875 C -0.117188 -5.492188 0.304688 -5.394531 0.734375 -5.375 C 1.171875 -5.363281 1.597656 -5.4375 2.015625 -5.59375 C 2.429688 -5.75 2.8125 -6.003906 3.15625 -6.359375 C 3.519531 -6.742188 3.78125 -7.125 3.9375 -7.5 C 4.09375 -7.882812 4.179688 -8.304688 4.203125 -8.765625 C 4.222656 -9.054688 4.332031 -9.300781 4.53125 -9.5 C 4.738281 -9.726562 5.003906 -9.847656 5.328125 -9.859375 C 5.660156 -9.867188 5.945312 -9.765625 6.1875 -9.546875 C 6.320312 -9.410156 6.410156 -9.265625 6.453125 -9.109375 C 6.492188 -8.960938 6.519531 -8.804688 6.53125 -8.640625 C 6.519531 -7.941406 6.378906 -7.28125 6.109375 -6.65625 C 5.847656 -6.03125 5.398438 -5.382812 4.765625 -4.71875 C 4.191406 -4.125 3.546875 -3.671875 2.828125 -3.359375 C 2.117188 -3.046875 1.394531 -2.878906 0.65625 -2.859375 C -0.0820312 -2.835938 -0.8125 -2.96875 -1.53125 -3.25 C -2.25 -3.539062 -2.90625 -3.96875 -3.5 -4.53125 L -3.515625 -4.546875 C -4.109375 -5.109375 -4.5625 -5.738281 -4.875 -6.4375 C -5.1875 -7.144531 -5.351562 -7.875 -5.375 -8.625 C -5.40625 -9.375 -5.28125 -10.113281 -5 -10.84375 C -4.726562 -11.582031 -4.289062 -12.269531 -3.6875 -12.90625 Z M -3.6875 -12.90625 "/></g></g></g><g fill="#ffffff" fill-opacity="1"><g transform="translate(274.906665, 257.744454)"><g><path d="M -0.21875 -1.828125 L -7.375 -7.09375 C -7.65625 -7.289062 -7.820312 -7.5625 -7.875 -7.90625 C -7.925781 -8.25 -7.847656 -8.566406 -7.640625 -8.859375 L -3.90625 -13.9375 C -3.71875 -14.195312 -3.472656 -14.347656 -3.171875 -14.390625 C -2.867188 -14.429688 -2.59375 -14.359375 -2.34375 -14.171875 C -2.09375 -13.992188 -1.941406 -13.753906 -1.890625 -13.453125 C -1.847656 -13.148438 -1.921875 -12.867188 -2.109375 -12.609375 L -5.109375 -8.515625 L -3.234375 -7.15625 L -0.671875 -10.65625 C -0.484375 -10.914062 -0.242188 -11.066406 0.046875 -11.109375 C 0.347656 -11.160156 0.628906 -11.085938 0.890625 -10.890625 C 1.140625 -10.710938 1.285156 -10.472656 1.328125 -10.171875 C 1.367188 -9.878906 1.296875 -9.601562 1.109375 -9.34375 L -1.453125 -5.84375 L 0.484375 -4.4375 L 3.53125 -8.59375 C 3.71875 -8.851562 3.960938 -9.003906 4.265625 -9.046875 C 4.578125 -9.085938 4.859375 -9.015625 5.109375 -8.828125 C 5.359375 -8.640625 5.503906 -8.394531 5.546875 -8.09375 C 5.585938 -7.800781 5.515625 -7.523438 5.328125 -7.265625 L 1.546875 -2.125 C 1.335938 -1.832031 1.0625 -1.660156 0.71875 -1.609375 C 0.375 -1.554688 0.0625 -1.628906 -0.21875 -1.828125 Z M -0.21875 -1.828125 "/></g></g></g></svg>