<svg xmlns="http://www.w3.org/2000/svg" xmlns:xlink="http://www.w3.org/1999/xlink" width="500" zoomAndPan="magnify" viewBox="0 0 375 374.999991" height="500" preserveAspectRatio="xMidYMid meet" version="1.0"><defs><clipPath id="5dad3eea47"><path d="M 96 31 L 313.242188 31 L 313.242188 357 L 96 357 Z M 96 31 " clip-rule="nonzero"/></clipPath></defs><path fill="#323738" d="M 295.566406 37.304688 L 261.082031 17.585938 C 259.574219 16.488281 257.957031 15.558594 256.238281 14.8125 L 255.730469 14.523438 L 255.707031 14.566406 C 246.429688 10.800781 234.445312 12.164062 221.371094 19.695312 L 115.148438 80.90625 C 85.945312 97.738281 62.046875 139.058594 62.046875 172.722656 L 62.046875 295.152344 C 62.046875 311.566406 67.757812 323.210938 76.96875 328.925781 L 76.882812 329.085938 L 115.207031 350.761719 L 136.761719 313.304688 L 221.371094 264.542969 C 250.570312 247.714844 274.472656 206.394531 274.472656 172.726562 L 274.472656 73.964844 Z M 295.566406 37.304688 " fill-opacity="1" fill-rule="nonzero"/><path fill="#252b2d" d="M 295.566406 37.304688 L 258.652344 28.660156 C 257.144531 27.566406 249.605469 27.59375 247.886719 26.84375 L 245.152344 25.75 L 240.222656 24.839844 C 230.945312 21.074219 234.445312 12.160156 221.371094 19.691406 L 115.148438 80.90625 C 85.945312 97.738281 62.046875 139.058594 62.046875 172.722656 L 62.046875 295.152344 C 62.046875 311.566406 67.757812 323.210938 76.96875 328.925781 L 76.882812 329.085938 L 115.207031 350.761719 L 136.761719 313.304688 L 221.371094 264.542969 C 250.570312 247.714844 274.472656 206.394531 274.472656 172.726562 L 274.472656 73.964844 Z M 295.566406 37.304688 " fill-opacity="1" fill-rule="nonzero"/><path fill="#090c0c" d="M 64.078125 155.085938 C 62.789062 161.078125 62.054688 167.015625 62.054688 172.722656 L 62.054688 295.152344 C 62.054688 311.566406 67.765625 323.210938 76.976562 328.925781 L 76.890625 329.085938 L 115.21875 350.761719 L 136.769531 313.304688 L 221.378906 264.542969 C 226.339844 261.6875 231.136719 258.074219 235.695312 253.953125 Z M 64.078125 155.085938 " fill-opacity="1" fill-rule="nonzero"/><path fill="#3b4142" d="M 151.664062 102.035156 C 122.457031 118.871094 98.558594 160.1875 98.558594 193.855469 L 98.558594 316.28125 C 98.558594 349.949219 122.457031 363.722656 151.664062 346.886719 L 257.878906 285.675781 C 287.082031 268.839844 310.984375 227.523438 310.984375 193.855469 L 310.984375 71.429688 C 310.984375 37.761719 287.082031 23.996094 257.878906 40.828125 Z M 151.664062 102.035156 " fill-opacity="1" fill-rule="nonzero"/><path fill="#383e3f" d="M 310.980469 71.429688 C 310.980469 37.761719 287.082031 23.996094 257.875 40.828125 L 151.660156 102.035156 C 122.457031 118.871094 98.554688 160.1875 98.554688 193.855469 L 98.554688 316.28125 C 98.554688 349.949219 122.457031 363.722656 151.660156 346.886719 " fill-opacity="0.2" fill-rule="nonzero"/><path fill="#3b4142" d="M 99.289062 184.65625 L 310.261719 63.070312 C 310.597656 60.519531 310.808594 58 310.898438 55.511719 L 98.648438 177.839844 C 98.742188 180.21875 98.957031 182.492188 99.289062 184.65625 Z M 99.289062 184.65625 " fill-opacity="1" fill-rule="nonzero"/><g clip-path="url(#5dad3eea47)"><path fill="#4f5759" d="M 128.074219 356.257812 L 128.066406 356.257812 C 108.8125 356.257812 96.371094 340.566406 96.371094 316.28125 L 96.371094 193.855469 C 96.371094 159.40625 120.679688 117.367188 150.5625 100.144531 L 256.785156 38.929688 C 265.394531 33.96875 273.699219 31.457031 281.472656 31.457031 C 300.726562 31.457031 313.175781 47.152344 313.175781 71.429688 L 313.175781 193.855469 C 313.175781 228.308594 288.859375 270.347656 258.976562 287.570312 L 152.757812 348.78125 C 144.144531 353.738281 135.84375 356.257812 128.074219 356.257812 Z M 281.476562 35.820312 C 274.480469 35.820312 266.910156 38.136719 258.976562 42.707031 L 152.757812 103.921875 C 124.082031 120.453125 100.746094 160.789062 100.746094 193.847656 L 100.746094 316.273438 C 100.746094 338.234375 111.214844 351.875 128.066406 351.875 L 128.074219 351.875 C 135.066406 351.875 142.632812 349.558594 150.5625 344.992188 L 256.785156 283.777344 C 285.460938 267.25 308.792969 226.90625 308.792969 193.847656 L 308.792969 71.421875 C 308.796875 49.460938 298.328125 35.820312 281.476562 35.820312 Z M 281.476562 35.820312 " fill-opacity="1" fill-rule="nonzero"/></g><path fill="#ff4d8d" d="M 140.828125 136.378906 C 140.828125 133.554688 142.824219 130.09375 145.273438 128.6875 C 147.722656 127.277344 149.722656 128.425781 149.71875 131.25 C 149.722656 134.070312 147.71875 137.53125 145.273438 138.941406 C 142.828125 140.347656 140.828125 139.199219 140.828125 136.378906 Z M 140.828125 136.378906 " fill-opacity="1" fill-rule="nonzero"/><path fill="#ea2864" d="M 145.277344 138.941406 C 142.828125 140.347656 140.832031 139.199219 140.828125 136.378906 C 140.832031 133.554688 142.828125 130.09375 145.277344 128.6875 " fill-opacity="1" fill-rule="nonzero"/><path fill="#f7d011" d="M 159.78125 125.5625 C 159.78125 122.738281 161.777344 119.28125 164.222656 117.871094 C 166.671875 116.460938 168.671875 117.613281 168.671875 120.433594 C 168.671875 123.253906 166.671875 126.714844 164.222656 128.125 C 161.78125 129.53125 159.78125 128.382812 159.78125 125.5625 Z M 159.78125 125.5625 " fill-opacity="1" fill-rule="nonzero"/><path fill="#f4b414" d="M 164.226562 128.125 C 161.78125 129.53125 159.78125 128.382812 159.78125 125.5625 C 159.78125 122.738281 161.78125 119.28125 164.226562 117.871094 " fill-opacity="1" fill-rule="nonzero"/><path fill="#15eaa8" d="M 178.730469 114.746094 C 178.730469 111.921875 180.734375 108.460938 183.179688 107.050781 C 185.625 105.640625 187.625 106.792969 187.625 109.617188 C 187.625 112.4375 185.625 115.894531 183.179688 117.304688 C 180.734375 118.714844 178.730469 117.558594 178.730469 114.746094 Z M 178.730469 114.746094 " fill-opacity="1" fill-rule="nonzero"/><path fill="#08c1b3" d="M 183.179688 117.304688 C 180.734375 118.714844 178.734375 117.5625 178.734375 114.746094 C 178.734375 111.921875 180.734375 108.460938 183.179688 107.050781 " fill-opacity="1" fill-rule="nonzero"/><path fill="#ffffff" d="M 195.859375 229.582031 C 194.507812 229.582031 193.136719 229.242188 191.882812 228.519531 L 150.484375 204.660156 C 146.675781 202.464844 145.371094 197.59375 147.566406 193.792969 C 149.769531 189.988281 154.632812 188.683594 158.453125 190.882812 L 199.851562 214.742188 C 203.664062 216.9375 204.96875 221.804688 202.765625 225.609375 C 201.292969 228.160156 198.617188 229.582031 195.859375 229.582031 Z M 195.859375 229.582031 " fill-opacity="1" fill-rule="nonzero"/><path fill="#ffffff" d="M 154.464844 301.15625 C 153.113281 301.15625 151.746094 300.8125 150.484375 300.09375 C 146.675781 297.894531 145.375 293.03125 147.570312 289.226562 L 188.96875 217.644531 C 191.167969 213.839844 196.027344 212.535156 199.855469 214.730469 C 203.667969 216.929688 204.96875 221.792969 202.769531 225.601562 L 161.371094 297.179688 C 159.894531 299.734375 157.214844 301.15625 154.464844 301.15625 Z M 154.464844 301.15625 " fill-opacity="1" fill-rule="nonzero"/><path fill="#ffffff" d="M 209.679688 269.351562 C 206.925781 269.351562 204.25 267.929688 202.769531 265.375 C 200.574219 261.570312 201.875 256.707031 205.691406 254.511719 L 260.894531 222.695312 C 264.707031 220.488281 269.578125 221.804688 271.78125 225.609375 C 273.976562 229.414062 272.671875 234.277344 268.859375 236.476562 L 213.65625 268.289062 C 212.398438 269.011719 211.027344 269.351562 209.679688 269.351562 Z M 209.679688 269.351562 " fill-opacity="1" fill-rule="nonzero"/></svg>